<?xml version="1.0" standalone="no"?>
<!DOCTYPE svg PUBLIC "-//W3C//DTD SVG 1.1//EN" "http://www.w3.org/Graphics/SVG/1.1/DTD/svg11.dtd" >
<svg xmlns="http://www.w3.org/2000/svg" xmlns:xlink="http://www.w3.org/1999/xlink" version="1.1">
<metadata>
Created by FontForge 20161013 at Mon Jun  6 02:42:35 2016
 By ,,,
Copyright (c) 2014-2016 by Andriy Konstantynov. All rights reserved.
</metadata>
<defs>
<font id="ProbaPro-Bold" horiz-adv-x="230" >
  <font-face 
    font-family="Proba Pro"
    font-weight="700"
    font-stretch="normal"
    units-per-em="1000"
    panose-1="2 13 0 3 3 2 0 0 0 0"
    ascent="750"
    descent="-250"
    x-height="450"
    cap-height="700"
    bbox="-43 -260 1298 992"
    underline-thickness="50"
    underline-position="-100"
    unicode-range="U+0020-FB04"
  />
    <missing-glyph />
    <glyph glyph-name="ff" unicode="ff" horiz-adv-x="620" 
d="M360 0v350h-140v-350h-135v350h-55v100h55v130c0 110 73 180 184 180c18 0 39 -2 56 -10v-106c-9 5 -20 7 -30 7c-43 0 -75 -29 -75 -71v-130h140v130c0 110 73 180 184 180c18 0 39 -2 56 -10v-106c-9 5 -20 7 -30 7c-43 0 -75 -29 -75 -71v-130h105v-100h-105v-350
h-135z" />
    <glyph glyph-name="ffi" unicode="ffi" horiz-adv-x="815" 
d="M635 0v350h-140v-350h-135v350h-140v-350h-135v350h-55v100h55v130c0 110 73 180 184 180c18 0 39 -2 56 -10v-106c-9 5 -20 7 -30 7c-43 0 -75 -29 -75 -71v-130h140v130c0 110 73 180 184 180c18 0 39 -2 56 -10v-106c-9 5 -20 7 -30 7c-43 0 -75 -29 -75 -71v-130h270
v-450h-130zM625 585c0 42 33 75 75 75s75 -33 75 -75s-33 -75 -75 -75s-75 33 -75 75z" />
    <glyph glyph-name="ffl" unicode="ffl" horiz-adv-x="850" 
d="M827 85v-85c-11 -4 -36 -6 -53 -6c-92 0 -134 56 -134 140v216h-145v-350h-135v350h-140v-350h-135v350h-55v100h55v130c0 110 73 180 184 180c18 0 39 -2 56 -10v-106c-9 5 -20 7 -31 7c-42 0 -74 -29 -74 -71v-130h140v130c0 110 73 180 184 180c18 0 39 -2 56 -10
v-106c-9 5 -20 7 -31 7c-42 0 -74 -29 -74 -71v-130h145v300h130v-612c0 -36 20 -53 57 -53z" />
    <glyph glyph-name="fi" unicode="fi" horiz-adv-x="540" 
d="M360 0v350h-140v-350h-135v350h-55v100h55v130c0 110 73 180 184 180c18 0 39 -2 56 -10v-106c-9 5 -20 7 -30 7c-43 0 -75 -29 -75 -71v-130h270v-450h-130zM350 585c0 42 33 75 75 75s75 -33 75 -75s-33 -75 -75 -75s-75 33 -75 75z" />
    <glyph glyph-name="fl" unicode="fl" horiz-adv-x="575" 
d="M552 85v-85c-11 -4 -36 -6 -53 -6c-92 0 -134 56 -134 140v216h-145v-350h-135v350h-55v100h55v130c0 110 73 180 184 180c18 0 39 -2 56 -10v-106c-9 5 -20 7 -31 7c-42 0 -74 -29 -74 -71v-130h145v300h130v-612c0 -36 20 -53 57 -53z" />
    <glyph glyph-name="caron" unicode="&#x2c7;" horiz-adv-x="352" 
d="M176 494l-146 146l64 64l82 -82l82 82l64 -64z" />
    <glyph glyph-name="cedilla" unicode="&#xb8;" horiz-adv-x="275" 
d="M163 0v-52c41 -10 68 -38 68 -84c0 -53 -38 -89 -93 -89c-28 0 -51 10 -68 27l37 37c8 -7 18 -12 31 -12c24 0 41 15 41 39c0 23 -18 42 -66 42v92h50z" />
    <glyph glyph-name="circumflex" unicode="&#x2c6;" horiz-adv-x="352" 
d="M176 704l146 -146l-64 -64l-82 82l-82 -82l-64 64z" />
    <glyph glyph-name="commaaccent" unicode="&#xf6c3;" 
d="M87 -260l-32 32c22 23 38 45 46 70c-27 6 -46 30 -46 58c0 34 26 60 60 60c25 0 60 -14 60 -66c0 -60 -47 -114 -88 -154z" />
    <glyph glyph-name="dieresis" unicode="&#xa8;" horiz-adv-x="446" 
d="M50 570c0 39 31 70 70 70s70 -31 70 -70s-31 -70 -70 -70s-70 31 -70 70zM245 570c0 40 31 71 70 71c40 0 71 -31 71 -71c0 -39 -31 -70 -71 -70c-39 0 -70 31 -70 70z" />
    <glyph glyph-name="dotaccent" unicode="&#x2d9;" 
d="M40 585c0 42 33 75 75 75s75 -33 75 -75s-33 -75 -75 -75s-75 33 -75 75z" />
    <glyph glyph-name="hungarumlaut" unicode="&#x2dd;" horiz-adv-x="440" 
d="M30 558l146 146l64 -64l-146 -146zM200 558l146 146l64 -64l-146 -146z" />
    <glyph glyph-name="grave" unicode="`" horiz-adv-x="270" 
d="M94 704l146 -146l-64 -64l-146 146z" />
    <glyph glyph-name="macron" unicode="&#xaf;" horiz-adv-x="350" 
d="M40 525v75h270v-75h-270z" />
    <glyph glyph-name="ogonek" unicode="&#x2db;" horiz-adv-x="259" 
d="M98 -33c0 -30 19 -48 46 -48c14 0 26 5 34 13l41 -41c-18 -19 -44 -29 -74 -29c-62 0 -105 42 -105 105c0 13 2 23 7 33h59c-5 -8 -8 -21 -8 -33z" />
    <glyph glyph-name="ring" unicode="&#x2da;" horiz-adv-x="275" 
d="M45 580c0 57 38 95 93 95c56 0 93 -38 93 -95s-37 -95 -93 -95c-55 0 -93 38 -93 95zM97 579c0 -25 17 -42 41 -42c25 0 42 17 42 42c0 26 -18 43 -42 43s-41 -17 -41 -43z" />
    <glyph glyph-name="tilde" unicode="&#x2dc;" horiz-adv-x="352" 
d="M87 520h-67c0 63 43 106 101 106c62 0 71 -43 109 -43c20 0 35 16 35 38h67c0 -63 -43 -106 -102 -106c-62 0 -69 43 -108 43c-20 0 -35 -15 -35 -38z" />
    <glyph glyph-name="space" unicode=" " 
 />
    <glyph glyph-name="A" unicode="A" horiz-adv-x="749" 
d="M579 0l-60 150h-290l-59 -150h-157l299 700h125l299 -700h-157zM375 524l-98 -254h194z" />
    <glyph glyph-name="Aacute" unicode="&#xc1;" horiz-adv-x="749" 
d="M579 0l-60 150h-290l-59 -150h-157l299 700h125l299 -700h-157zM375 524l-98 -254h194zM289 788l146 146l64 -64l-146 -146z" />
    <glyph glyph-name="Abreve" unicode="&#x102;" horiz-adv-x="749" 
d="M579 0l-60 150h-290l-59 -150h-157l299 700h125l299 -700h-157zM375 524l-98 -254h194zM374 827c40 0 74 13 95 36l63 -63c-39 -42 -93 -66 -158 -66s-119 26 -158 67l63 63c21 -23 55 -37 95 -37z" />
    <glyph glyph-name="Acircumflex" unicode="&#xc2;" horiz-adv-x="749" 
d="M579 0l-60 150h-290l-59 -150h-157l299 700h125l299 -700h-157zM375 524l-98 -254h194zM374 934l146 -146l-64 -64l-82 82l-82 -82l-64 64z" />
    <glyph glyph-name="Agrave" unicode="&#xc0;" horiz-adv-x="749" 
d="M579 0l-60 150h-290l-59 -150h-157l299 700h125l299 -700h-157zM375 524l-98 -254h194zM314 934l146 -146l-64 -64l-146 146z" />
    <glyph glyph-name="Adieresis" unicode="&#xc4;" horiz-adv-x="749" 
d="M579 0l-60 150h-290l-59 -150h-157l299 700h125l299 -700h-157zM375 524l-98 -254h194zM207 800c0 39 31 70 70 70s70 -31 70 -70s-31 -70 -70 -70s-70 31 -70 70zM402 800c0 40 31 71 70 71c40 0 71 -31 71 -71c0 -39 -31 -70 -71 -70c-39 0 -70 31 -70 70z" />
    <glyph glyph-name="Amacron" unicode="&#x100;" horiz-adv-x="749" 
d="M579 0l-60 150h-290l-59 -150h-157l299 700h125l299 -700h-157zM375 524l-98 -254h194zM240 755v75h270v-75h-270z" />
    <glyph glyph-name="Aogonek" unicode="&#x104;" horiz-adv-x="749" 
d="M627 -33c0 -30 19 -48 46 -48c14 0 26 5 34 13l41 -41c-18 -19 -44 -29 -74 -29c-62 0 -105 42 -105 105c0 13 2 23 7 33h3l-60 150h-290l-59 -150h-157l299 700h125l299 -700h-101c-5 -8 -8 -21 -8 -33zM375 524l-98 -254h194z" />
    <glyph glyph-name="Aring" unicode="&#xc5;" horiz-adv-x="749" 
d="M579 0l-60 150h-290l-59 -150h-157l299 700h125l299 -700h-157zM375 524l-98 -254h194zM282 810c0 57 38 95 93 95c56 0 93 -38 93 -95s-37 -95 -93 -95c-55 0 -93 38 -93 95zM334 809c0 -25 17 -42 41 -42c25 0 42 17 42 42c0 26 -18 43 -42 43s-41 -17 -41 -43z" />
    <glyph glyph-name="Atilde" unicode="&#xc3;" horiz-adv-x="749" 
d="M579 0l-60 150h-290l-59 -150h-157l299 700h125l299 -700h-157zM375 524l-98 -254h194zM285 750h-67c0 63 43 106 101 106c62 0 71 -43 109 -43c20 0 35 16 35 38h67c0 -63 -43 -106 -102 -106c-62 0 -69 43 -108 43c-20 0 -35 -15 -35 -38z" />
    <glyph glyph-name="AE" unicode="&#xc6;" horiz-adv-x="793" 
d="M524 590v-185h199v-110h-199v-185h234v-110h-369v150h-153l-64 -150h-157l311 700h427v-110h-229zM284 270h105v258z" />
    <glyph glyph-name="AEacute" unicode="&#x1fc;" horiz-adv-x="793" 
d="M524 590v-185h199v-110h-199v-185h234v-110h-369v150h-153l-64 -150h-157l311 700h427v-110h-229zM284 270h105v258zM341 788l146 146l64 -64l-146 -146z" />
    <glyph glyph-name="B" unicode="B" horiz-adv-x="569" 
d="M55 0v700h225c121 0 202 -72 202 -186c0 -60 -23 -109 -63 -141c62 -32 100 -94 100 -173c0 -122 -88 -200 -218 -200h-246zM384 210c0 57 -36 95 -89 95h-100v-190h100c53 0 89 38 89 95zM347 502c0 50 -31 83 -77 83h-75v-165h75c46 0 77 33 77 82z" />
    <glyph glyph-name="C" unicode="C" horiz-adv-x="700" 
d="M185 350c0 -142 93 -240 227 -240c70 0 127 23 168 64l85 -84c-63 -63 -153 -100 -260 -100c-214 0 -360 146 -360 360s146 360 360 360c107 0 197 -37 260 -100l-85 -85c-40 41 -98 65 -168 65c-134 0 -227 -98 -227 -240z" />
    <glyph glyph-name="Cacute" unicode="&#x106;" horiz-adv-x="700" 
d="M185 350c0 -142 93 -240 227 -240c70 0 127 23 168 64l85 -84c-63 -63 -153 -100 -260 -100c-214 0 -360 146 -360 360s146 360 360 360c107 0 197 -37 260 -100l-85 -85c-40 41 -98 65 -168 65c-134 0 -227 -98 -227 -240zM298 788l146 146l64 -64l-146 -146z" />
    <glyph glyph-name="Ccaron" unicode="&#x10c;" horiz-adv-x="700" 
d="M185 350c0 -142 93 -240 227 -240c70 0 127 23 168 64l85 -84c-63 -63 -153 -100 -260 -100c-214 0 -360 146 -360 360s146 360 360 360c107 0 197 -37 260 -100l-85 -85c-40 41 -98 65 -168 65c-134 0 -227 -98 -227 -240zM381 724l-146 146l64 64l82 -82l82 82l64 -64z
" />
    <glyph glyph-name="Ccedilla" unicode="&#xc7;" horiz-adv-x="700" 
d="M185 350c0 -142 93 -240 227 -240c70 0 127 23 168 64l85 -84c-59 -59 -140 -94 -236 -99v-43c41 -10 68 -38 68 -84c0 -53 -38 -89 -93 -89c-28 0 -51 10 -68 27l37 37c8 -7 18 -12 31 -12c24 0 41 15 41 39c0 23 -18 42 -66 42v83c-200 11 -334 154 -334 359
c0 214 146 360 360 360c107 0 197 -37 260 -100l-85 -85c-40 41 -98 65 -168 65c-134 0 -227 -98 -227 -240z" />
    <glyph glyph-name="Ccircumflex" unicode="&#x108;" horiz-adv-x="700" 
d="M185 350c0 -142 93 -240 227 -240c70 0 127 23 168 64l85 -84c-63 -63 -153 -100 -260 -100c-214 0 -360 146 -360 360s146 360 360 360c107 0 197 -37 260 -100l-85 -85c-40 41 -98 65 -168 65c-134 0 -227 -98 -227 -240zM385 934l146 -146l-64 -64l-82 82l-82 -82
l-64 64z" />
    <glyph glyph-name="Cdotaccent" unicode="&#x10a;" horiz-adv-x="700" 
d="M185 350c0 -142 93 -240 227 -240c70 0 127 23 168 64l85 -84c-63 -63 -153 -100 -260 -100c-214 0 -360 146 -360 360s146 360 360 360c107 0 197 -37 260 -100l-85 -85c-40 41 -98 65 -168 65c-134 0 -227 -98 -227 -240zM310 815c0 42 33 75 75 75s75 -33 75 -75
s-33 -75 -75 -75s-75 33 -75 75z" />
    <glyph glyph-name="D" unicode="D" horiz-adv-x="710" 
d="M55 0v700h250c215 0 360 -136 360 -350s-145 -350 -360 -350h-250zM525 350c0 142 -90 235 -220 235h-110v-470h110c130 0 220 93 220 235z" />
    <glyph glyph-name="Dcaron" unicode="&#x10e;" horiz-adv-x="710" 
d="M55 0v700h250c215 0 360 -136 360 -350s-145 -350 -360 -350h-250zM525 350c0 142 -90 235 -220 235h-110v-470h110c130 0 220 93 220 235zM345 724l-146 146l64 64l82 -82l82 82l64 -64z" />
    <glyph glyph-name="Dcroat" unicode="&#x110;" horiz-adv-x="710" 
d="M35 300v100h40v300h230c215 0 360 -136 360 -350s-145 -350 -360 -350h-230v300h-40zM525 350c0 142 -90 235 -220 235h-90v-185h130v-100h-130v-185h90c130 0 220 93 220 235z" />
    <glyph glyph-name="Eth" unicode="&#xd0;" horiz-adv-x="710" 
d="M35 300v100h40v300h230c215 0 360 -136 360 -350s-145 -350 -360 -350h-230v300h-40zM525 350c0 142 -90 235 -220 235h-90v-185h130v-100h-130v-185h90c130 0 220 93 220 235z" />
    <glyph glyph-name="Thorn" unicode="&#xde;" horiz-adv-x="544" 
d="M55 0v700h140v-130h75c137 0 229 -82 229 -210s-92 -210 -229 -210h-75v-150h-140zM359 360c0 57 -36 95 -89 95h-75v-190h75c53 0 89 38 89 95z" />
    <glyph glyph-name="E" unicode="E" horiz-adv-x="485" 
d="M190 590v-185h220v-110h-220v-185h255v-110h-390v700h385v-110h-250z" />
    <glyph glyph-name="Eacute" unicode="&#xc9;" horiz-adv-x="485" 
d="M190 590v-185h220v-110h-220v-185h255v-110h-390v700h385v-110h-250zM162 788l146 146l64 -64l-146 -146z" />
    <glyph glyph-name="Ebreve" unicode="&#x114;" horiz-adv-x="485" 
d="M190 590v-185h220v-110h-220v-185h255v-110h-390v700h385v-110h-250zM247 827c40 0 74 13 95 36l63 -63c-39 -42 -93 -66 -158 -66s-119 26 -158 67l63 63c21 -23 55 -37 95 -37z" />
    <glyph glyph-name="Ecaron" unicode="&#x11a;" horiz-adv-x="485" 
d="M190 590v-185h220v-110h-220v-185h255v-110h-390v700h385v-110h-250zM247 724l-146 146l64 64l82 -82l82 82l64 -64z" />
    <glyph glyph-name="Ecircumflex" unicode="&#xca;" horiz-adv-x="485" 
d="M190 590v-185h220v-110h-220v-185h255v-110h-390v700h385v-110h-250zM247 934l146 -146l-64 -64l-82 82l-82 -82l-64 64z" />
    <glyph glyph-name="Edieresis" unicode="&#xcb;" horiz-adv-x="485" 
d="M190 590v-185h220v-110h-220v-185h255v-110h-390v700h385v-110h-250zM79 800c0 39 31 70 70 70s70 -31 70 -70s-31 -70 -70 -70s-70 31 -70 70zM274 800c0 40 31 71 70 71c40 0 71 -31 71 -71c0 -39 -31 -70 -71 -70c-39 0 -70 31 -70 70z" />
    <glyph glyph-name="Edotaccent" unicode="&#x116;" horiz-adv-x="485" 
d="M190 590v-185h220v-110h-220v-185h255v-110h-390v700h385v-110h-250zM172 815c0 42 33 75 75 75s75 -33 75 -75s-33 -75 -75 -75s-75 33 -75 75z" />
    <glyph glyph-name="Egrave" unicode="&#xc8;" horiz-adv-x="485" 
d="M190 590v-185h220v-110h-220v-185h255v-110h-390v700h385v-110h-250zM186 934l146 -146l-64 -64l-146 146z" />
    <glyph glyph-name="Emacron" unicode="&#x112;" horiz-adv-x="485" 
d="M190 590v-185h220v-110h-220v-185h255v-110h-390v700h385v-110h-250zM112 755v75h270v-75h-270z" />
    <glyph glyph-name="Eogonek" unicode="&#x118;" horiz-adv-x="485" 
d="M339 -33c0 -30 19 -48 46 -48c14 0 26 5 34 13l41 -41c-18 -19 -44 -29 -74 -29c-62 0 -105 42 -105 105c0 13 2 23 7 33h-233v700h385v-110h-250v-185h220v-110h-220v-185h255v-110h-98c-5 -8 -8 -21 -8 -33z" />
    <glyph glyph-name="F" unicode="F" horiz-adv-x="465" 
d="M190 590v-185h210v-110h-210v-295h-135v700h375v-110h-240z" />
    <glyph glyph-name="G" unicode="G" horiz-adv-x="720" 
d="M405 280v110h260v-300c-63 -63 -153 -100 -260 -100c-214 0 -360 146 -360 360s146 360 360 360c107 0 197 -37 260 -100l-85 -85c-40 41 -98 65 -168 65c-134 0 -227 -98 -227 -240s93 -240 227 -240c45 0 84 9 118 27v143h-125z" />
    <glyph glyph-name="Gbreve" unicode="&#x11e;" horiz-adv-x="720" 
d="M405 280v110h260v-300c-63 -63 -153 -100 -260 -100c-214 0 -360 146 -360 360s146 360 360 360c107 0 197 -37 260 -100l-85 -85c-40 41 -98 65 -168 65c-134 0 -227 -98 -227 -240s93 -240 227 -240c45 0 84 9 118 27v143h-125zM403 827c40 0 74 13 95 36l63 -63
c-39 -42 -93 -66 -158 -66s-119 26 -158 67l63 63c21 -23 55 -37 95 -37z" />
    <glyph glyph-name="Gcircumflex" unicode="&#x11c;" horiz-adv-x="720" 
d="M405 280v110h260v-300c-63 -63 -153 -100 -260 -100c-214 0 -360 146 -360 360s146 360 360 360c107 0 197 -37 260 -100l-85 -85c-40 41 -98 65 -168 65c-134 0 -227 -98 -227 -240s93 -240 227 -240c45 0 84 9 118 27v143h-125zM404 934l146 -146l-64 -64l-82 82
l-82 -82l-64 64z" />
    <glyph glyph-name="Gcommaaccent" unicode="&#x122;" horiz-adv-x="720" 
d="M405 280v110h260v-300c-63 -63 -153 -100 -260 -100c-214 0 -360 146 -360 360s146 360 360 360c107 0 197 -37 260 -100l-85 -85c-40 41 -98 65 -168 65c-134 0 -227 -98 -227 -240s93 -240 227 -240c45 0 84 9 118 27v143h-125zM362 -260l-32 32c22 23 38 45 46 70
c-27 6 -46 30 -46 58c0 34 26 60 60 60c25 0 60 -14 60 -66c0 -60 -47 -114 -88 -154z" />
    <glyph glyph-name="Gdotaccent" unicode="&#x120;" horiz-adv-x="720" 
d="M405 280v110h260v-300c-63 -63 -153 -100 -260 -100c-214 0 -360 146 -360 360s146 360 360 360c107 0 197 -37 260 -100l-85 -85c-40 41 -98 65 -168 65c-134 0 -227 -98 -227 -240s93 -240 227 -240c45 0 84 9 118 27v143h-125zM328 815c0 42 33 75 75 75
s75 -33 75 -75s-33 -75 -75 -75s-75 33 -75 75z" />
    <glyph glyph-name="H" unicode="H" horiz-adv-x="690" 
d="M190 700v-295h310v295h135v-700h-135v295h-310v-295h-135v700h135z" />
    <glyph glyph-name="Hbar" unicode="&#x126;" horiz-adv-x="710" 
d="M85 0v500h-50v100h50v100h135v-100h260v100h135v-100h60v-100h-60v-500h-135v295h-260v-295h-135zM220 405h260v95h-260v-95z" />
    <glyph glyph-name="Hcircumflex" unicode="&#x124;" horiz-adv-x="690" 
d="M190 700v-295h310v295h135v-700h-135v295h-310v-295h-135v700h135zM345 934l146 -146l-64 -64l-82 82l-82 -82l-64 64z" />
    <glyph glyph-name="I" unicode="I" horiz-adv-x="245" 
d="M55 0v700h135v-700h-135z" />
    <glyph glyph-name="Iacute" unicode="&#xcd;" horiz-adv-x="245" 
d="M55 0v700h135v-700h-135zM38 788l146 146l64 -64l-146 -146z" />
    <glyph glyph-name="Ibreve" unicode="&#x12c;" horiz-adv-x="245" 
d="M55 0v700h135v-700h-135zM123 827c40 0 74 13 95 36l63 -63c-39 -42 -93 -66 -158 -66s-119 26 -158 67l63 63c21 -23 55 -37 95 -37z" />
    <glyph glyph-name="Icircumflex" unicode="&#xce;" horiz-adv-x="245" 
d="M55 0v700h135v-700h-135zM123 934l146 -146l-64 -64l-82 82l-82 -82l-64 64z" />
    <glyph glyph-name="Idieresis" unicode="&#xcf;" horiz-adv-x="245" 
d="M55 0v700h135v-700h-135zM-35 800c0 39 31 70 70 70s70 -31 70 -70s-31 -70 -70 -70s-70 31 -70 70zM140 800c0 40 31 71 70 71c40 0 71 -31 71 -71c0 -39 -31 -70 -71 -70c-39 0 -70 31 -70 70z" />
    <glyph glyph-name="Idotaccent" unicode="&#x130;" horiz-adv-x="245" 
d="M55 0v700h135v-700h-135zM47 815c0 42 33 75 75 75s75 -33 75 -75s-33 -75 -75 -75s-75 33 -75 75z" />
    <glyph glyph-name="Igrave" unicode="&#xcc;" horiz-adv-x="245" 
d="M55 0v700h135v-700h-135zM62 934l146 -146l-64 -64l-146 146z" />
    <glyph glyph-name="Imacron" unicode="&#x12a;" horiz-adv-x="245" 
d="M55 0v700h135v-700h-135zM-12 755v75h270v-75h-270z" />
    <glyph glyph-name="Iogonek" unicode="&#x12e;" horiz-adv-x="245" 
d="M55 0v700h135v-700h-135zM106 -33c0 -30 19 -48 46 -48c14 0 26 5 34 13l41 -41c-18 -19 -44 -29 -74 -29c-62 0 -105 42 -105 105c0 13 2 23 7 33h59c-5 -8 -8 -21 -8 -33z" />
    <glyph glyph-name="Itilde" unicode="&#x128;" horiz-adv-x="245" 
d="M55 0v700h135v-700h-135zM34 750h-67c0 63 43 106 101 106c62 0 71 -43 109 -43c20 0 35 16 35 38h67c0 -63 -43 -106 -102 -106c-62 0 -69 43 -108 43c-20 0 -35 -15 -35 -38z" />
    <glyph glyph-name="IJ" unicode="&#x132;" horiz-adv-x="500" 
d="M55 250v450h135v-450h-135zM310 200v500h135v-500c0 -125 -89 -210 -214 -210c-62 0 -118 22 -155 58l86 86c15 -15 37 -24 63 -24c50 0 85 37 85 90z" />
    <glyph glyph-name="J" unicode="J" horiz-adv-x="459" 
d="M269 200v500h135v-500c0 -125 -89 -210 -214 -210c-62 0 -118 22 -155 58l86 86c15 -15 37 -24 63 -24c50 0 85 37 85 90z" />
    <glyph glyph-name="Jcircumflex" unicode="&#x134;" horiz-adv-x="459" 
d="M269 200v500h135v-500c0 -125 -89 -210 -214 -210c-62 0 -118 22 -155 58l86 86c15 -15 37 -24 63 -24c50 0 85 37 85 90zM336 934l146 -146l-64 -64l-82 82l-82 -82l-64 64z" />
    <glyph glyph-name="K" unicode="K" horiz-adv-x="639" 
d="M450 0l-260 344v-344h-135v700h135v-322l239 322h170l-252 -339l277 -361h-174z" />
    <glyph glyph-name="Kcommaaccent" unicode="&#x136;" horiz-adv-x="639" 
d="M450 0l-260 344v-344h-135v700h135v-322l239 322h170l-252 -339l277 -361h-174zM291 -260l-32 32c22 23 38 45 46 70c-27 6 -46 30 -46 58c0 34 26 60 60 60c25 0 60 -14 60 -66c0 -60 -47 -114 -88 -154z" />
    <glyph glyph-name="L" unicode="L" horiz-adv-x="470" 
d="M190 700v-590h245v-110h-380v700h135z" />
    <glyph glyph-name="Lacute" unicode="&#x139;" horiz-adv-x="470" 
d="M190 700v-590h245v-110h-380v700h135zM130 788l146 146l64 -64l-146 -146z" />
    <glyph glyph-name="Lcaron" unicode="&#x13d;" horiz-adv-x="470" 
d="M190 700v-590h245v-110h-380v700h135zM123 724l-146 146l64 64l82 -82l82 82l64 -64z" />
    <glyph glyph-name="Lcommaaccent" unicode="&#x13b;" horiz-adv-x="470" 
d="M190 700v-590h245v-110h-380v700h135zM217 -260l-32 32c22 23 38 45 46 70c-27 6 -46 30 -46 58c0 34 26 60 60 60c25 0 60 -14 60 -66c0 -60 -47 -114 -88 -154z" />
    <glyph glyph-name="Ldot" unicode="&#x13f;" horiz-adv-x="470" 
d="M190 700v-590h245v-110h-380v700h135zM280 325c0 42 33 75 75 75s75 -33 75 -75s-33 -75 -75 -75s-75 33 -75 75z" />
    <glyph glyph-name="Lslash" unicode="&#x141;" horiz-adv-x="529" 
d="M5 213l109 109v378h135v-273l72 72l64 -64l-136 -136v-189h245v-110h-380v194l-45 -45z" />
    <glyph glyph-name="M" unicode="M" horiz-adv-x="800" 
d="M610 0v426l-187 -286h-46l-187 286v-426h-135v700h100l245 -361l245 361h100v-700h-135z" />
    <glyph glyph-name="N" unicode="N" horiz-adv-x="715" 
d="M55 700h85l385 -440v440h135v-700h-85l-385 440v-440h-135v700z" />
    <glyph glyph-name="Nacute" unicode="&#x143;" horiz-adv-x="715" 
d="M55 700h85l385 -440v440h135v-700h-85l-385 440v-440h-135v700zM272 788l146 146l64 -64l-146 -146z" />
    <glyph glyph-name="Ncaron" unicode="&#x147;" horiz-adv-x="715" 
d="M55 700h85l385 -440v440h135v-700h-85l-385 440v-440h-135v700zM357 724l-146 146l64 64l82 -82l82 82l64 -64z" />
    <glyph glyph-name="Ncommaaccent" unicode="&#x145;" horiz-adv-x="715" 
d="M55 700h85l385 -440v440h135v-700h-85l-385 440v-440h-135v700zM329 -260l-32 32c22 23 38 45 46 70c-27 6 -46 30 -46 58c0 34 26 60 60 60c25 0 60 -14 60 -66c0 -60 -47 -114 -88 -154z" />
    <glyph glyph-name="Ntilde" unicode="&#xd1;" horiz-adv-x="715" 
d="M55 700h85l385 -440v440h135v-700h-85l-385 440v-440h-135v700zM268 750h-67c0 63 43 106 101 106c62 0 71 -43 109 -43c20 0 35 16 35 38h67c0 -63 -43 -106 -102 -106c-62 0 -69 43 -108 43c-20 0 -35 -15 -35 -38z" />
    <glyph glyph-name="Eng" unicode="&#x14a;" horiz-adv-x="715" 
d="M483 -250v85c25 0 42 16 42 43v179l-335 383v-440h-135v700h85l385 -440v440h135v-826c0 -75 -46 -130 -130 -130c-16 0 -36 2 -47 6z" />
    <glyph glyph-name="O" unicode="O" horiz-adv-x="801" 
d="M44 350c0 214 145 360 357 360c213 0 356 -146 356 -360s-143 -360 -356 -360c-212 0 -357 146 -357 360zM184 350c0 -142 89 -240 217 -240s216 98 216 240s-88 240 -216 240s-217 -98 -217 -240z" />
    <glyph glyph-name="Oacute" unicode="&#xd3;" horiz-adv-x="801" 
d="M44 350c0 214 145 360 357 360c213 0 356 -146 356 -360s-143 -360 -356 -360c-212 0 -357 146 -357 360zM184 350c0 -142 89 -240 217 -240s216 98 216 240s-88 240 -216 240s-217 -98 -217 -240zM315 788l146 146l64 -64l-146 -146z" />
    <glyph glyph-name="Obreve" unicode="&#x14e;" horiz-adv-x="801" 
d="M44 350c0 214 145 360 357 360c213 0 356 -146 356 -360s-143 -360 -356 -360c-212 0 -357 146 -357 360zM184 350c0 -142 89 -240 217 -240s216 98 216 240s-88 240 -216 240s-217 -98 -217 -240zM401 827c40 0 74 13 95 36l63 -63c-39 -42 -93 -66 -158 -66
s-119 26 -158 67l63 63c21 -23 55 -37 95 -37z" />
    <glyph glyph-name="Ocircumflex" unicode="&#xd4;" horiz-adv-x="801" 
d="M44 350c0 214 145 360 357 360c213 0 356 -146 356 -360s-143 -360 -356 -360c-212 0 -357 146 -357 360zM184 350c0 -142 89 -240 217 -240s216 98 216 240s-88 240 -216 240s-217 -98 -217 -240zM401 934l146 -146l-64 -64l-82 82l-82 -82l-64 64z" />
    <glyph glyph-name="Odieresis" unicode="&#xd6;" horiz-adv-x="801" 
d="M44 350c0 214 145 360 357 360c213 0 356 -146 356 -360s-143 -360 -356 -360c-212 0 -357 146 -357 360zM184 350c0 -142 89 -240 217 -240s216 98 216 240s-88 240 -216 240s-217 -98 -217 -240zM233 800c0 39 31 70 70 70s70 -31 70 -70s-31 -70 -70 -70
s-70 31 -70 70zM428 800c0 40 31 71 70 71c40 0 71 -31 71 -71c0 -39 -31 -70 -71 -70c-39 0 -70 31 -70 70z" />
    <glyph glyph-name="Ograve" unicode="&#xd2;" horiz-adv-x="801" 
d="M44 350c0 214 145 360 357 360c213 0 356 -146 356 -360s-143 -360 -356 -360c-212 0 -357 146 -357 360zM184 350c0 -142 89 -240 217 -240s216 98 216 240s-88 240 -216 240s-217 -98 -217 -240zM340 934l146 -146l-64 -64l-146 146z" />
    <glyph glyph-name="Ohungarumlaut" unicode="&#x150;" horiz-adv-x="801" 
d="M44 350c0 214 145 360 357 360c213 0 356 -146 356 -360s-143 -360 -356 -360c-212 0 -357 146 -357 360zM184 350c0 -142 89 -240 217 -240s216 98 216 240s-88 240 -216 240s-217 -98 -217 -240zM231 788l146 146l64 -64l-146 -146zM401 788l146 146l64 -64l-146 -146z
" />
    <glyph glyph-name="Omacron" unicode="&#x14c;" horiz-adv-x="801" 
d="M44 350c0 214 145 360 357 360c213 0 356 -146 356 -360s-143 -360 -356 -360c-212 0 -357 146 -357 360zM184 350c0 -142 89 -240 217 -240s216 98 216 240s-88 240 -216 240s-217 -98 -217 -240zM266 755v75h270v-75h-270z" />
    <glyph glyph-name="Oslash" unicode="&#xd8;" horiz-adv-x="802" 
d="M34 -10l95 114c-54 62 -85 147 -85 246c0 214 145 360 357 360c73 0 138 -18 191 -49l41 49h135l-96 -115c54 -62 85 -146 85 -245c0 -214 -143 -360 -356 -360c-73 0 -138 17 -192 48l-40 -48h-135zM184 350c0 -53 12 -100 35 -138l291 350c-31 18 -68 28 -109 28
c-128 0 -217 -98 -217 -240zM617 350c0 53 -12 99 -34 137l-291 -349c31 -18 68 -28 109 -28c128 0 216 98 216 240z" />
    <glyph glyph-name="Oslashacute" unicode="&#x1fe;" horiz-adv-x="802" 
d="M34 -10l95 114c-54 62 -85 147 -85 246c0 214 145 360 357 360c73 0 138 -18 191 -49l41 49h135l-96 -115c54 -62 85 -146 85 -245c0 -214 -143 -360 -356 -360c-73 0 -138 17 -192 48l-40 -48h-135zM184 350c0 -53 12 -100 35 -138l291 350c-31 18 -68 28 -109 28
c-128 0 -217 -98 -217 -240zM617 350c0 53 -12 99 -34 137l-291 -349c31 -18 68 -28 109 -28c128 0 216 98 216 240zM315 788l146 146l64 -64l-146 -146z" />
    <glyph glyph-name="Otilde" unicode="&#xd5;" horiz-adv-x="801" 
d="M44 350c0 214 145 360 357 360c213 0 356 -146 356 -360s-143 -360 -356 -360c-212 0 -357 146 -357 360zM184 350c0 -142 89 -240 217 -240s216 98 216 240s-88 240 -216 240s-217 -98 -217 -240zM312 750h-67c0 63 43 106 101 106c62 0 71 -43 109 -43
c20 0 35 16 35 38h67c0 -63 -43 -106 -102 -106c-62 0 -69 43 -108 43c-20 0 -35 -15 -35 -38z" />
    <glyph glyph-name="OE" unicode="&#x152;" horiz-adv-x="907" 
d="M633 590v-185h204v-110h-204v-185h239v-110h-372c-30 -6 -62 -10 -95 -10c-214 0 -360 146 -360 360s146 360 360 360c32 0 64 -4 93 -10h369v-110h-234zM405 110c34 0 65 6 93 19v442c-28 12 -59 19 -93 19c-130 0 -220 -98 -220 -240s90 -240 220 -240z" />
    <glyph glyph-name="P" unicode="P" horiz-adv-x="544" 
d="M55 0v700h215c137 0 229 -82 229 -210s-92 -210 -229 -210h-75v-280h-140zM359 490c0 57 -36 95 -89 95h-75v-190h75c53 0 89 38 89 95z" />
    <glyph glyph-name="Q" unicode="Q" horiz-adv-x="802" 
d="M680 -21l-70 71c-56 -38 -128 -60 -209 -60c-212 0 -357 146 -357 360s145 360 357 360c213 0 356 -146 356 -360c0 -84 -22 -157 -62 -215l70 -71zM184 350c0 -142 89 -240 217 -240c44 0 89 7 121 28l-91 94l84 84l79 -82c15 34 23 73 23 116c0 142 -88 240 -216 240
s-217 -98 -217 -240z" />
    <glyph glyph-name="R" unicode="R" horiz-adv-x="564" 
d="M392 0l-139 280h-58v-280h-140v700h225c137 0 229 -82 229 -210c0 -92 -48 -160 -125 -191l162 -299h-154zM369 490c0 57 -36 95 -89 95h-85v-190h85c53 0 89 38 89 95z" />
    <glyph glyph-name="Racute" unicode="&#x154;" horiz-adv-x="564" 
d="M392 0l-139 280h-58v-280h-140v700h225c137 0 229 -82 229 -210c0 -92 -48 -160 -125 -191l162 -299h-154zM369 490c0 57 -36 95 -89 95h-85v-190h85c53 0 89 38 89 95zM187 788l146 146l64 -64l-146 -146z" />
    <glyph glyph-name="Rcaron" unicode="&#x158;" horiz-adv-x="564" 
d="M392 0l-139 280h-58v-280h-140v700h225c137 0 229 -82 229 -210c0 -92 -48 -160 -125 -191l162 -299h-154zM369 490c0 57 -36 95 -89 95h-85v-190h85c53 0 89 38 89 95zM272 724l-146 146l64 64l82 -82l82 82l64 -64z" />
    <glyph glyph-name="Rcommaaccent" unicode="&#x156;" horiz-adv-x="564" 
d="M392 0l-139 280h-58v-280h-140v700h225c137 0 229 -82 229 -210c0 -92 -48 -160 -125 -191l162 -299h-154zM369 490c0 57 -36 95 -89 95h-85v-190h85c53 0 89 38 89 95zM254 -260l-32 32c22 23 38 45 46 70c-27 6 -46 30 -46 58c0 34 26 60 60 60c25 0 60 -14 60 -66
c0 -60 -47 -114 -88 -154z" />
    <glyph glyph-name="S" unicode="S" horiz-adv-x="570" 
d="M500 615l-83 -83c-29 29 -81 58 -129 58c-62 0 -88 -48 -88 -83c0 -122 315 -75 315 -304c0 -119 -84 -213 -231 -213c-95 0 -177 39 -245 107l83 83c39 -39 93 -70 148 -70c70 0 105 50 105 90c0 119 -315 67 -315 303c0 115 75 207 213 207c87 0 168 -36 227 -95z" />
    <glyph glyph-name="Sacute" unicode="&#x15a;" horiz-adv-x="570" 
d="M500 615l-83 -83c-29 29 -81 58 -129 58c-62 0 -88 -48 -88 -83c0 -122 315 -75 315 -304c0 -119 -84 -213 -231 -213c-95 0 -177 39 -245 107l83 83c39 -39 93 -70 148 -70c70 0 105 50 105 90c0 119 -315 67 -315 303c0 115 75 207 213 207c87 0 168 -36 227 -95z
M190 788l146 146l64 -64l-146 -146z" />
    <glyph glyph-name="Scaron" unicode="&#x160;" horiz-adv-x="570" 
d="M500 615l-83 -83c-29 29 -81 58 -129 58c-62 0 -88 -48 -88 -83c0 -122 315 -75 315 -304c0 -119 -84 -213 -231 -213c-95 0 -177 39 -245 107l83 83c39 -39 93 -70 148 -70c70 0 105 50 105 90c0 119 -315 67 -315 303c0 115 75 207 213 207c87 0 168 -36 227 -95z
M275 724l-146 146l64 64l82 -82l82 82l64 -64z" />
    <glyph glyph-name="Scedilla" unicode="&#x15e;" horiz-adv-x="570" 
d="M500 615l-83 -83c-29 29 -81 58 -129 58c-62 0 -88 -48 -88 -83c0 -122 315 -75 315 -304c0 -112 -75 -202 -206 -212v-43c41 -10 68 -38 68 -84c0 -53 -38 -89 -93 -89c-28 0 -51 10 -68 27l37 37c8 -7 18 -12 31 -12c24 0 41 15 41 39c0 23 -18 42 -66 42v83
c-85 7 -158 44 -220 106l83 83c39 -39 93 -70 148 -70c70 0 105 50 105 90c0 119 -315 67 -315 303c0 115 75 207 213 207c87 0 168 -36 227 -95z" />
    <glyph glyph-name="Scircumflex" unicode="&#x15c;" horiz-adv-x="570" 
d="M500 615l-83 -83c-29 29 -81 58 -129 58c-62 0 -88 -48 -88 -83c0 -122 315 -75 315 -304c0 -119 -84 -213 -231 -213c-95 0 -177 39 -245 107l83 83c39 -39 93 -70 148 -70c70 0 105 50 105 90c0 119 -315 67 -315 303c0 115 75 207 213 207c87 0 168 -36 227 -95z
M275 934l146 -146l-64 -64l-82 82l-82 -82l-64 64z" />
    <glyph glyph-name="Scommaaccent" unicode="&#x218;" horiz-adv-x="570" 
d="M500 615l-83 -83c-29 29 -81 58 -129 58c-62 0 -88 -48 -88 -83c0 -122 315 -75 315 -304c0 -119 -84 -213 -231 -213c-95 0 -177 39 -245 107l83 83c39 -39 93 -70 148 -70c70 0 105 50 105 90c0 119 -315 67 -315 303c0 115 75 207 213 207c87 0 168 -36 227 -95z
M257 -260l-32 32c22 23 38 45 46 70c-27 6 -46 30 -46 58c0 34 26 60 60 60c25 0 60 -14 60 -66c0 -60 -47 -114 -88 -154z" />
    <glyph glyph-name="T" unicode="T" horiz-adv-x="566" 
d="M350 590v-590h-135v590h-180v110h495v-110h-180z" />
    <glyph glyph-name="Tbar" unicode="&#x166;" horiz-adv-x="566" 
d="M85 320v100h130v170h-180v110h495v-110h-180v-170h130v-100h-130v-320h-135v320h-130z" />
    <glyph glyph-name="Tcaron" unicode="&#x164;" horiz-adv-x="566" 
d="M350 590v-590h-135v590h-180v110h495v-110h-180zM283 724l-146 146l64 64l82 -82l82 82l64 -64z" />
    <glyph glyph-name="Tcommaaccent" unicode="&#x162;" horiz-adv-x="566" 
d="M350 590v-590h-135v590h-180v110h495v-110h-180zM255 -260l-32 32c22 23 38 45 46 70c-27 6 -46 30 -46 58c0 34 26 60 60 60c25 0 60 -14 60 -66c0 -60 -47 -114 -88 -154z" />
    <glyph glyph-name="uni021A" unicode="&#x21a;" horiz-adv-x="566" 
d="M350 590v-590h-135v590h-180v110h495v-110h-180zM255 -260l-32 32c22 23 38 45 46 70c-27 6 -46 30 -46 58c0 34 26 60 60 60c25 0 60 -14 60 -66c0 -60 -47 -114 -88 -154z" />
    <glyph glyph-name="U" unicode="U" horiz-adv-x="659" 
d="M469 260v440h135v-440c0 -161 -112 -270 -276 -270s-273 109 -273 270v440h135v-440c0 -89 57 -150 138 -150c83 0 141 61 141 150z" />
    <glyph glyph-name="Uacute" unicode="&#xda;" horiz-adv-x="659" 
d="M469 260v440h135v-440c0 -161 -112 -270 -276 -270s-273 109 -273 270v440h135v-440c0 -89 57 -150 138 -150c83 0 141 61 141 150zM244 788l146 146l64 -64l-146 -146z" />
    <glyph glyph-name="Ubreve" unicode="&#x16c;" horiz-adv-x="659" 
d="M469 260v440h135v-440c0 -161 -112 -270 -276 -270s-273 109 -273 270v440h135v-440c0 -89 57 -150 138 -150c83 0 141 61 141 150zM329 827c40 0 74 13 95 36l63 -63c-39 -42 -93 -66 -158 -66s-119 26 -158 67l63 63c21 -23 55 -37 95 -37z" />
    <glyph glyph-name="Ucircumflex" unicode="&#xdb;" horiz-adv-x="659" 
d="M469 260v440h135v-440c0 -161 -112 -270 -276 -270s-273 109 -273 270v440h135v-440c0 -89 57 -150 138 -150c83 0 141 61 141 150zM329 934l146 -146l-64 -64l-82 82l-82 -82l-64 64z" />
    <glyph glyph-name="Udieresis" unicode="&#xdc;" horiz-adv-x="659" 
d="M469 260v440h135v-440c0 -161 -112 -270 -276 -270s-273 109 -273 270v440h135v-440c0 -89 57 -150 138 -150c83 0 141 61 141 150zM161 800c0 39 31 70 70 70s70 -31 70 -70s-31 -70 -70 -70s-70 31 -70 70zM356 800c0 40 31 71 70 71c40 0 71 -31 71 -71
c0 -39 -31 -70 -71 -70c-39 0 -70 31 -70 70z" />
    <glyph glyph-name="Ugrave" unicode="&#xd9;" horiz-adv-x="659" 
d="M469 260v440h135v-440c0 -161 -112 -270 -276 -270s-273 109 -273 270v440h135v-440c0 -89 57 -150 138 -150c83 0 141 61 141 150zM268 934l146 -146l-64 -64l-146 146z" />
    <glyph glyph-name="Uhungarumlaut" unicode="&#x170;" horiz-adv-x="659" 
d="M469 260v440h135v-440c0 -161 -112 -270 -276 -270s-273 109 -273 270v440h135v-440c0 -89 57 -150 138 -150c83 0 141 61 141 150zM159 788l146 146l64 -64l-146 -146zM329 788l146 146l64 -64l-146 -146z" />
    <glyph glyph-name="Umacron" unicode="&#x16a;" horiz-adv-x="659" 
d="M469 260v440h135v-440c0 -161 -112 -270 -276 -270s-273 109 -273 270v440h135v-440c0 -89 57 -150 138 -150c83 0 141 61 141 150zM194 755v75h270v-75h-270z" />
    <glyph glyph-name="Uogonek" unicode="&#x172;" horiz-adv-x="659" 
d="M401 -33c0 -30 19 -48 46 -48c14 0 26 5 34 13l41 -41c-18 -19 -44 -29 -74 -29c-62 0 -105 42 -105 105c0 9 1 17 3 24c-6 -1 -12 -1 -18 -1c-164 0 -273 109 -273 270v440h135v-440c0 -89 57 -150 138 -150c83 0 141 61 141 150v440h135v-440
c0 -133 -77 -231 -196 -260c-5 -8 -7 -21 -7 -33z" />
    <glyph glyph-name="Uring" unicode="&#x16e;" horiz-adv-x="659" 
d="M469 260v440h135v-440c0 -161 -112 -270 -276 -270s-273 109 -273 270v440h135v-440c0 -89 57 -150 138 -150c83 0 141 61 141 150zM236 810c0 57 38 95 93 95c56 0 93 -38 93 -95s-37 -95 -93 -95c-55 0 -93 38 -93 95zM288 809c0 -25 17 -42 41 -42c25 0 42 17 42 42
c0 26 -18 43 -42 43s-41 -17 -41 -43z" />
    <glyph glyph-name="Utilde" unicode="&#x168;" horiz-adv-x="659" 
d="M469 260v440h135v-440c0 -161 -112 -270 -276 -270s-273 109 -273 270v440h135v-440c0 -89 57 -150 138 -150c83 0 141 61 141 150zM240 750h-67c0 63 43 106 101 106c62 0 71 -43 109 -43c20 0 35 16 35 38h67c0 -63 -43 -106 -102 -106c-62 0 -69 43 -108 43
c-20 0 -35 -15 -35 -38z" />
    <glyph glyph-name="V" unicode="V" horiz-adv-x="749" 
d="M736 700l-299 -700h-125l-299 700h160l202 -521l201 521h160z" />
    <glyph glyph-name="W" unicode="W" horiz-adv-x="1054" 
d="M1041 700l-238 -700h-135l-142 463l-140 -463h-135l-238 700h158l147 -486l139 486h139l140 -486l147 486h158z" />
    <glyph glyph-name="Wacute" unicode="&#x1e82;" horiz-adv-x="1054" 
d="M1041 700l-238 -700h-135l-142 463l-140 -463h-135l-238 700h158l147 -486l139 486h139l140 -486l147 486h158zM440 788l146 146l64 -64l-146 -146z" />
    <glyph glyph-name="Wcircumflex" unicode="&#x174;" horiz-adv-x="1054" 
d="M1041 700l-238 -700h-135l-142 463l-140 -463h-135l-238 700h158l147 -486l139 486h139l140 -486l147 486h158zM526 934l146 -146l-64 -64l-82 82l-82 -82l-64 64z" />
    <glyph glyph-name="Wdieresis" unicode="&#x1e84;" horiz-adv-x="1054" 
d="M1041 700l-238 -700h-135l-142 463l-140 -463h-135l-238 700h158l147 -486l139 486h139l140 -486l147 486h158zM358 800c0 39 31 70 70 70s70 -31 70 -70s-31 -70 -70 -70s-70 31 -70 70zM553 800c0 40 31 71 70 71c40 0 71 -31 71 -71c0 -39 -31 -70 -71 -70
c-39 0 -70 31 -70 70z" />
    <glyph glyph-name="Wgrave" unicode="&#x1e80;" horiz-adv-x="1054" 
d="M1041 700l-238 -700h-135l-142 463l-140 -463h-135l-238 700h158l147 -486l139 486h139l140 -486l147 486h158zM466 934l146 -146l-64 -64l-146 146z" />
    <glyph glyph-name="X" unicode="X" horiz-adv-x="726" 
d="M539 0l-177 265l-175 -265h-174l249 356l-240 344h175l165 -252l166 252h175l-240 -344l250 -356h-174z" />
    <glyph glyph-name="Y" unicode="Y" horiz-adv-x="695" 
d="M279 0v281l-264 419h155l177 -287l177 287h155l-265 -421v-279h-135z" />
    <glyph glyph-name="Yacute" unicode="&#xdd;" horiz-adv-x="695" 
d="M279 0v281l-264 419h155l177 -287l177 287h155l-265 -421v-279h-135zM262 788l146 146l64 -64l-146 -146z" />
    <glyph glyph-name="Ycircumflex" unicode="&#x176;" horiz-adv-x="695" 
d="M279 0v281l-264 419h155l177 -287l177 287h155l-265 -421v-279h-135zM347 934l146 -146l-64 -64l-82 82l-82 -82l-64 64z" />
    <glyph glyph-name="Ydieresis" unicode="&#x178;" horiz-adv-x="695" 
d="M279 0v281l-264 419h155l177 -287l177 287h155l-265 -421v-279h-135zM179 800c0 39 31 70 70 70s70 -31 70 -70s-31 -70 -70 -70s-70 31 -70 70zM374 800c0 40 31 71 70 71c40 0 71 -31 71 -71c0 -39 -31 -70 -71 -70c-39 0 -70 31 -70 70z" />
    <glyph glyph-name="Ygrave" unicode="&#x1ef2;" horiz-adv-x="695" 
d="M279 0v281l-264 419h155l177 -287l177 287h155l-265 -421v-279h-135zM286 934l146 -146l-64 -64l-146 146z" />
    <glyph glyph-name="Z" unicode="Z" horiz-adv-x="636" 
d="M50 590v110h541v-35l-346 -555h346v-110h-546v36l346 554h-341z" />
    <glyph glyph-name="Zacute" unicode="&#x179;" horiz-adv-x="636" 
d="M50 590v110h541v-35l-346 -555h346v-110h-546v36l346 554h-341zM233 788l146 146l64 -64l-146 -146z" />
    <glyph glyph-name="Zcaron" unicode="&#x17d;" horiz-adv-x="636" 
d="M50 590v110h541v-35l-346 -555h346v-110h-546v36l346 554h-341zM318 724l-146 146l64 64l82 -82l82 82l64 -64z" />
    <glyph glyph-name="Zdotaccent" unicode="&#x17b;" horiz-adv-x="636" 
d="M50 590v110h541v-35l-346 -555h346v-110h-546v36l346 554h-341zM243 815c0 42 33 75 75 75s75 -33 75 -75s-33 -75 -75 -75s-75 33 -75 75z" />
    <glyph glyph-name="uni018F" unicode="&#x18f;" horiz-adv-x="732" 
d="M688 350c0 -214 -130 -360 -322 -360c-191 0 -322 146 -322 360v50h500c-20 114 -105 190 -220 190c-69 0 -126 -24 -165 -65l-85 85c62 63 151 100 257 100c212 0 357 -146 357 -360zM366 110c90 0 158 71 176 180h-352c18 -109 85 -180 176 -180z" />
    <glyph glyph-name="a" unicode="a" horiz-adv-x="465" 
d="M437 83v-85c-11 -4 -30 -6 -46 -6c-52 0 -87 22 -105 55c-31 -35 -74 -57 -124 -57c-82 0 -131 60 -131 135c0 100 85 150 187 150c32 0 52 -5 52 -5v25c0 33 -19 60 -74 60c-30 0 -67 -8 -88 -29l-64 64c46 46 93 70 166 70c122 0 190 -67 190 -165v-179
c0 -18 15 -33 37 -33zM207 95c20 0 46 9 63 29v59s-16 6 -41 6c-42 0 -67 -16 -67 -49c0 -24 14 -45 45 -45z" />
    <glyph glyph-name="aacute" unicode="&#xe1;" horiz-adv-x="465" 
d="M437 83v-85c-11 -4 -30 -6 -46 -6c-52 0 -87 22 -105 55c-31 -35 -74 -57 -124 -57c-82 0 -131 60 -131 135c0 100 85 150 187 150c32 0 52 -5 52 -5v25c0 33 -19 60 -74 60c-30 0 -67 -8 -88 -29l-64 64c46 46 93 70 166 70c122 0 190 -67 190 -165v-179
c0 -18 15 -33 37 -33zM132 558l146 146l64 -64l-146 -146zM207 95c20 0 46 9 63 29v59s-16 6 -41 6c-42 0 -67 -16 -67 -49c0 -24 14 -45 45 -45z" />
    <glyph glyph-name="abreve" unicode="&#x103;" horiz-adv-x="465" 
d="M437 83v-85c-11 -4 -30 -6 -46 -6c-52 0 -87 22 -105 55c-31 -35 -74 -57 -124 -57c-82 0 -131 60 -131 135c0 100 85 150 187 150c32 0 52 -5 52 -5v25c0 33 -19 60 -74 60c-30 0 -67 -8 -88 -29l-64 64c46 46 93 70 166 70c122 0 190 -67 190 -165v-179
c0 -18 15 -33 37 -33zM222 597c40 0 74 13 95 36l63 -63c-39 -42 -93 -66 -158 -66s-119 26 -158 67l63 63c21 -23 55 -37 95 -37zM207 95c20 0 46 9 63 29v59s-16 6 -41 6c-42 0 -67 -16 -67 -49c0 -24 14 -45 45 -45z" />
    <glyph glyph-name="acircumflex" unicode="&#xe2;" horiz-adv-x="465" 
d="M437 83v-85c-11 -4 -30 -6 -46 -6c-52 0 -87 22 -105 55c-31 -35 -74 -57 -124 -57c-82 0 -131 60 -131 135c0 100 85 150 187 150c32 0 52 -5 52 -5v25c0 33 -19 60 -74 60c-30 0 -67 -8 -88 -29l-64 64c46 46 93 70 166 70c122 0 190 -67 190 -165v-179
c0 -18 15 -33 37 -33zM222 704l146 -146l-64 -64l-82 82l-82 -82l-64 64zM207 95c20 0 46 9 63 29v59s-16 6 -41 6c-42 0 -67 -16 -67 -49c0 -24 14 -45 45 -45z" />
    <glyph glyph-name="adieresis" unicode="&#xe4;" horiz-adv-x="465" 
d="M437 83v-85c-11 -4 -30 -6 -46 -6c-52 0 -87 22 -105 55c-31 -35 -74 -57 -124 -57c-82 0 -131 60 -131 135c0 100 85 150 187 150c32 0 52 -5 52 -5v25c0 33 -19 60 -74 60c-30 0 -67 -8 -88 -29l-64 64c46 46 93 70 166 70c122 0 190 -67 190 -165v-179
c0 -18 15 -33 37 -33zM254 570c0 40 31 71 70 71c40 0 71 -31 71 -71c0 -39 -31 -70 -71 -70c-39 0 -70 31 -70 70zM59 570c0 39 31 70 70 70s70 -31 70 -70s-31 -70 -70 -70s-70 31 -70 70zM207 95c20 0 46 9 63 29v59s-16 6 -41 6c-42 0 -67 -16 -67 -49
c0 -24 14 -45 45 -45z" />
    <glyph glyph-name="agrave" unicode="&#xe0;" horiz-adv-x="465" 
d="M437 83v-85c-11 -4 -30 -6 -46 -6c-52 0 -87 22 -105 55c-31 -35 -74 -57 -124 -57c-82 0 -131 60 -131 135c0 100 85 150 187 150c32 0 52 -5 52 -5v25c0 33 -19 60 -74 60c-30 0 -67 -8 -88 -29l-64 64c46 46 93 70 166 70c122 0 190 -67 190 -165v-179
c0 -18 15 -33 37 -33zM151 704l146 -146l-64 -64l-146 146zM207 95c20 0 46 9 63 29v59s-16 6 -41 6c-42 0 -67 -16 -67 -49c0 -24 14 -45 45 -45z" />
    <glyph glyph-name="amacron" unicode="&#x101;" horiz-adv-x="465" 
d="M437 83v-85c-11 -4 -30 -6 -46 -6c-52 0 -87 22 -105 55c-31 -35 -74 -57 -124 -57c-82 0 -131 60 -131 135c0 100 85 150 187 150c32 0 52 -5 52 -5v25c0 33 -19 60 -74 60c-30 0 -67 -8 -88 -29l-64 64c46 46 93 70 166 70c122 0 190 -67 190 -165v-179
c0 -18 15 -33 37 -33zM87 525v75h270v-75h-270zM207 95c20 0 46 9 63 29v59s-16 6 -41 6c-42 0 -67 -16 -67 -49c0 -24 14 -45 45 -45z" />
    <glyph glyph-name="aogonek" unicode="&#x105;" horiz-adv-x="465" 
d="M398 -33c0 -30 19 -48 46 -48c14 0 26 5 34 13l41 -41c-18 -19 -44 -29 -74 -29c-62 0 -105 42 -105 105c0 13 1 22 6 32c-28 8 -48 25 -60 48c-31 -35 -74 -57 -124 -57c-82 0 -131 60 -131 135c0 100 85 150 187 150c32 0 52 -5 52 -5v25c0 33 -19 60 -74 60
c-30 0 -67 -8 -88 -29l-64 64c46 46 93 70 166 70c122 0 190 -67 190 -165v-179c0 -18 15 -33 37 -33v-85c-9 -3 -22 -5 -35 -6c-3 -7 -4 -16 -4 -25zM207 95c20 0 46 9 63 29v59s-16 6 -41 6c-42 0 -67 -16 -67 -49c0 -24 14 -45 45 -45z" />
    <glyph glyph-name="aring" unicode="&#xe5;" horiz-adv-x="465" 
d="M437 83v-85c-11 -4 -30 -6 -46 -6c-52 0 -87 22 -105 55c-31 -35 -74 -57 -124 -57c-82 0 -131 60 -131 135c0 100 85 150 187 150c32 0 52 -5 52 -5v25c0 33 -19 60 -74 60c-30 0 -67 -8 -88 -29l-64 64c46 46 93 70 166 70c122 0 190 -67 190 -165v-179
c0 -18 15 -33 37 -33zM129 580c0 57 38 95 93 95c56 0 93 -38 93 -95s-37 -95 -93 -95c-55 0 -93 38 -93 95zM207 95c20 0 46 9 63 29v59s-16 6 -41 6c-42 0 -67 -16 -67 -49c0 -24 14 -45 45 -45zM181 579c0 -25 17 -42 41 -42c25 0 42 17 42 42c0 26 -18 43 -42 43
s-41 -17 -41 -43z" />
    <glyph glyph-name="atilde" unicode="&#xe3;" horiz-adv-x="465" 
d="M437 83v-85c-11 -4 -30 -6 -46 -6c-52 0 -87 22 -105 55c-31 -35 -74 -57 -124 -57c-82 0 -131 60 -131 135c0 100 85 150 187 150c32 0 52 -5 52 -5v25c0 33 -19 60 -74 60c-30 0 -67 -8 -88 -29l-64 64c46 46 93 70 166 70c122 0 190 -67 190 -165v-179
c0 -18 15 -33 37 -33zM138 520h-67c0 63 43 106 101 106c62 0 71 -43 109 -43c20 0 35 16 35 38h67c0 -63 -43 -106 -102 -106c-62 0 -69 43 -108 43c-20 0 -35 -15 -35 -38zM207 95c20 0 46 9 63 29v59s-16 6 -41 6c-42 0 -67 -16 -67 -49c0 -24 14 -45 45 -45z" />
    <glyph glyph-name="ae" unicode="&#xe6;" horiz-adv-x="701" 
d="M270 273v22c0 27 -21 60 -65 60c-29 0 -70 -14 -88 -33l-69 69c42 41 100 69 169 69c47 0 86 -13 116 -34c35 22 76 34 127 34c144 0 211 -95 211 -276h-271v-48c19 -20 47 -31 84 -31c39 0 69 12 88 33l77 -79c-43 -44 -101 -69 -175 -69c-73 0 -136 24 -178 69
c-33 -44 -82 -69 -134 -69c-82 0 -131 61 -131 132c0 102 102 153 210 153c15 0 23 -1 29 -2zM400 295v-21h141c-9 45 -32 74 -79 74c-27 0 -49 -10 -64 -27c1 -8 2 -17 2 -26zM270 124v64c-7 2 -12 3 -22 3c-45 0 -86 -20 -86 -54c0 -19 13 -42 45 -42c20 0 46 9 63 29z
" />
    <glyph glyph-name="aeacute" unicode="&#x1fd;" horiz-adv-x="701" 
d="M270 273v22c0 27 -21 60 -65 60c-29 0 -70 -14 -88 -33l-69 69c42 41 100 69 169 69c47 0 86 -13 116 -34c35 22 76 34 127 34c144 0 211 -95 211 -276h-271v-48c19 -20 47 -31 84 -31c39 0 69 12 88 33l77 -79c-43 -44 -101 -69 -175 -69c-73 0 -136 24 -178 69
c-33 -44 -82 -69 -134 -69c-82 0 -131 61 -131 132c0 102 102 153 210 153c15 0 23 -1 29 -2zM400 295v-21h141c-9 45 -32 74 -79 74c-27 0 -49 -10 -64 -27c1 -8 2 -17 2 -26zM270 124v64c-7 2 -12 3 -22 3c-45 0 -86 -20 -86 -54c0 -19 13 -42 45 -42c20 0 46 9 63 29z
M285 558l146 146l64 -64l-146 -146z" />
    <glyph glyph-name="b" unicode="b" horiz-adv-x="540" 
d="M250 -10c-68 0 -147 16 -200 76v684h130v-315c30 16 66 25 106 25c130 0 219 -96 219 -235c0 -140 -90 -235 -255 -235zM370 223c0 72 -42 122 -106 122c-31 0 -64 -12 -84 -41v-174c21 -18 52 -25 79 -25c72 0 111 49 111 118z" />
    <glyph glyph-name="c" unicode="c" horiz-adv-x="465" 
d="M170 225c0 -71 45 -120 109 -120c35 0 64 12 82 33l79 -79c-42 -44 -100 -69 -169 -69c-141 0 -236 95 -236 235s95 235 236 235c69 0 127 -26 169 -70l-79 -79c-18 21 -47 34 -82 34c-64 0 -109 -49 -109 -120z" />
    <glyph glyph-name="cacute" unicode="&#x107;" horiz-adv-x="465" 
d="M170 225c0 -71 45 -120 109 -120c35 0 64 12 82 33l79 -79c-42 -44 -100 -69 -169 -69c-141 0 -236 95 -236 235s95 235 236 235c69 0 127 -26 169 -70l-79 -79c-18 21 -47 34 -82 34c-64 0 -109 -49 -109 -120zM167 558l146 146l64 -64l-146 -146z" />
    <glyph glyph-name="ccaron" unicode="&#x10d;" horiz-adv-x="465" 
d="M170 225c0 -71 45 -120 109 -120c35 0 64 12 82 33l79 -79c-42 -44 -100 -69 -169 -69c-141 0 -236 95 -236 235s95 235 236 235c69 0 127 -26 169 -70l-79 -79c-18 21 -47 34 -82 34c-64 0 -109 -49 -109 -120zM249 494l-146 146l64 64l82 -82l82 82l64 -64z" />
    <glyph glyph-name="ccedilla" unicode="&#xe7;" horiz-adv-x="465" 
d="M170 225c0 -71 45 -120 109 -120c35 0 64 12 82 33l79 -79c-38 -40 -89 -64 -149 -68v-43c41 -10 68 -38 68 -84c0 -53 -38 -89 -93 -89c-28 0 -51 10 -68 27l37 37c8 -7 18 -12 31 -12c24 0 41 15 41 39c0 23 -18 42 -66 42v84c-125 12 -206 103 -206 233
c0 140 95 235 236 235c69 0 127 -26 169 -70l-79 -79c-18 21 -47 34 -82 34c-64 0 -109 -49 -109 -120z" />
    <glyph glyph-name="ccircumflex" unicode="&#x109;" horiz-adv-x="465" 
d="M170 225c0 -71 45 -120 109 -120c35 0 64 12 82 33l79 -79c-42 -44 -100 -69 -169 -69c-141 0 -236 95 -236 235s95 235 236 235c69 0 127 -26 169 -70l-79 -79c-18 21 -47 34 -82 34c-64 0 -109 -49 -109 -120zM250 704l146 -146l-64 -64l-82 82l-82 -82l-64 64z" />
    <glyph glyph-name="cdotaccent" unicode="&#x10b;" horiz-adv-x="465" 
d="M170 225c0 -71 45 -120 109 -120c35 0 64 12 82 33l79 -79c-42 -44 -100 -69 -169 -69c-141 0 -236 95 -236 235s95 235 236 235c69 0 127 -26 169 -70l-79 -79c-18 21 -47 34 -82 34c-64 0 -109 -49 -109 -120zM172 585c0 42 33 75 75 75s75 -33 75 -75s-33 -75 -75 -75
s-75 33 -75 75z" />
    <glyph glyph-name="d" unicode="d" horiz-adv-x="540" 
d="M490 0h-130v30c-33 -26 -73 -40 -118 -40c-124 0 -207 95 -207 235s93 235 231 235c34 0 66 -7 94 -20v310h130v-750zM170 225c0 -71 45 -120 109 -120c34 0 63 11 81 32v180c-18 17 -47 28 -81 28c-64 0 -109 -49 -109 -120z" />
    <glyph glyph-name="dcaron" unicode="&#x10f;" horiz-adv-x="695" 
d="M490 0h-130v30c-33 -26 -73 -40 -118 -40c-124 0 -207 95 -207 235s93 235 231 235c34 0 66 -7 94 -20v310h130v-750zM170 225c0 -71 45 -120 109 -120c34 0 63 11 81 32v180c-18 17 -47 28 -81 28c-64 0 -109 -49 -109 -120zM590 485l-40 40c27 28 47 56 58 87
c-34 8 -58 37 -58 73c0 42 33 75 75 75c31 0 75 -18 75 -83c0 -75 -59 -142 -110 -192z" />
    <glyph glyph-name="dcroat" unicode="&#x111;" horiz-adv-x="570" 
d="M490 0h-130v30c-33 -26 -73 -40 -118 -40c-124 0 -207 95 -207 235s93 235 231 235c34 0 66 -7 94 -20v105h-115v100h115v105h130v-105h50v-100h-50v-545zM170 225c0 -71 45 -120 109 -120c34 0 63 11 81 32v180c-18 17 -47 28 -81 28c-64 0 -109 -49 -109 -120z" />
    <glyph glyph-name="eth" unicode="&#xf0;" horiz-adv-x="550" 
d="M163 510l-50 86l60 34l-64 66l117 64c20 -20 41 -41 62 -64l71 40l50 -86l-56 -32c89 -117 162 -256 162 -379c0 -158 -97 -249 -239 -249c-145 0 -241 96 -241 237c0 142 98 233 238 233c15 0 25 -1 35 -3c-16 28 -41 62 -69 96zM380 225c0 71 -43 120 -105 120
s-105 -49 -105 -120s43 -120 105 -120s105 49 105 120z" />
    <glyph glyph-name="thorn" unicode="&#xfe;" horiz-adv-x="540" 
d="M50 750h130v-330c33 26 73 40 118 40c124 0 207 -95 207 -235s-93 -235 -230 -235c-35 0 -67 7 -95 20v-260h-130v1000zM370 225c0 71 -45 120 -109 120c-35 0 -63 -12 -81 -32v-180c18 -18 46 -28 81 -28c64 0 109 49 109 120z" />
    <glyph glyph-name="e" unicode="e" horiz-adv-x="501" 
d="M471 184h-297c13 -49 49 -79 111 -79c38 0 68 12 87 33l77 -79c-43 -44 -101 -69 -174 -69c-143 0 -240 94 -240 238c0 137 87 232 228 232c147 0 208 -103 208 -276zM262 348c-47 0 -78 -29 -88 -74h167c-9 45 -32 74 -79 74z" />
    <glyph glyph-name="eacute" unicode="&#xe9;" horiz-adv-x="501" 
d="M471 184h-297c13 -49 49 -79 111 -79c38 0 68 12 87 33l77 -79c-43 -44 -101 -69 -174 -69c-143 0 -240 94 -240 238c0 137 87 232 228 232c147 0 208 -103 208 -276zM262 348c-47 0 -78 -29 -88 -74h167c-9 45 -32 74 -79 74zM172 558l146 146l64 -64l-146 -146z" />
    <glyph glyph-name="ebreve" unicode="&#x115;" horiz-adv-x="501" 
d="M471 184h-297c13 -49 49 -79 111 -79c38 0 68 12 87 33l77 -79c-43 -44 -101 -69 -174 -69c-143 0 -240 94 -240 238c0 137 87 232 228 232c147 0 208 -103 208 -276zM262 348c-47 0 -78 -29 -88 -74h167c-9 45 -32 74 -79 74zM260 597c40 0 74 13 95 36l63 -63
c-39 -42 -93 -66 -158 -66s-119 26 -158 67l63 63c21 -23 55 -37 95 -37z" />
    <glyph glyph-name="ecaron" unicode="&#x11b;" horiz-adv-x="501" 
d="M471 184h-297c13 -49 49 -79 111 -79c38 0 68 12 87 33l77 -79c-43 -44 -101 -69 -174 -69c-143 0 -240 94 -240 238c0 137 87 232 228 232c147 0 208 -103 208 -276zM262 348c-47 0 -78 -29 -88 -74h167c-9 45 -32 74 -79 74zM258 494l-146 146l64 64l82 -82l82 82
l64 -64z" />
    <glyph glyph-name="ecircumflex" unicode="&#xea;" horiz-adv-x="501" 
d="M471 184h-297c13 -49 49 -79 111 -79c38 0 68 12 87 33l77 -79c-43 -44 -101 -69 -174 -69c-143 0 -240 94 -240 238c0 137 87 232 228 232c147 0 208 -103 208 -276zM262 348c-47 0 -78 -29 -88 -74h167c-9 45 -32 74 -79 74zM259 704l146 -146l-64 -64l-82 82l-82 -82
l-64 64z" />
    <glyph glyph-name="edieresis" unicode="&#xeb;" horiz-adv-x="501" 
d="M471 184h-297c13 -49 49 -79 111 -79c38 0 68 12 87 33l77 -79c-43 -44 -101 -69 -174 -69c-143 0 -240 94 -240 238c0 137 87 232 228 232c147 0 208 -103 208 -276zM262 348c-47 0 -78 -29 -88 -74h167c-9 45 -32 74 -79 74zM92 570c0 39 31 70 70 70s70 -31 70 -70
s-31 -70 -70 -70s-70 31 -70 70zM287 570c0 40 31 71 70 71c40 0 71 -31 71 -71c0 -39 -31 -70 -71 -70c-39 0 -70 31 -70 70z" />
    <glyph glyph-name="edotaccent" unicode="&#x117;" horiz-adv-x="501" 
d="M471 184h-297c13 -49 49 -79 111 -79c38 0 68 12 87 33l77 -79c-43 -44 -101 -69 -174 -69c-143 0 -240 94 -240 238c0 137 87 232 228 232c147 0 208 -103 208 -276zM262 348c-47 0 -78 -29 -88 -74h167c-9 45 -32 74 -79 74zM185 585c0 42 33 75 75 75s75 -33 75 -75
s-33 -75 -75 -75s-75 33 -75 75z" />
    <glyph glyph-name="egrave" unicode="&#xe8;" horiz-adv-x="501" 
d="M471 184h-297c13 -49 49 -79 111 -79c38 0 68 12 87 33l77 -79c-43 -44 -101 -69 -174 -69c-143 0 -240 94 -240 238c0 137 87 232 228 232c147 0 208 -103 208 -276zM262 348c-47 0 -78 -29 -88 -74h167c-9 45 -32 74 -79 74zM199 704l146 -146l-64 -64l-146 146z" />
    <glyph glyph-name="emacron" unicode="&#x113;" horiz-adv-x="501" 
d="M471 184h-297c13 -49 49 -79 111 -79c38 0 68 12 87 33l77 -79c-43 -44 -101 -69 -174 -69c-143 0 -240 94 -240 238c0 137 87 232 228 232c147 0 208 -103 208 -276zM262 348c-47 0 -78 -29 -88 -74h167c-9 45 -32 74 -79 74zM123 525v75h270v-75h-270z" />
    <glyph glyph-name="eogonek" unicode="&#x119;" horiz-adv-x="501" 
d="M340 -33c0 -30 19 -48 46 -48c14 0 26 5 34 13l41 -41c-18 -19 -44 -29 -74 -29c-62 0 -105 42 -105 105c0 9 1 16 3 23h-10c-143 0 -240 94 -240 238c0 137 87 232 228 232c147 0 208 -103 208 -276h-297c13 -49 49 -79 111 -79c38 0 68 12 87 33l77 -79
c-28 -29 -62 -49 -102 -60c-4 -8 -7 -20 -7 -32zM262 348c-47 0 -78 -29 -88 -74h167c-9 45 -32 74 -79 74z" />
    <glyph glyph-name="f" unicode="f" horiz-adv-x="345" 
d="M30 350v100h55v130c0 110 73 180 184 180c18 0 39 -2 56 -10v-106c-9 5 -20 7 -30 7c-43 0 -75 -29 -75 -71v-130h105v-100h-105v-350h-135v350h-55z" />
    <glyph glyph-name="g" unicode="g" horiz-adv-x="510" 
d="M10 -110c0 55 36 93 90 117c-32 20 -45 45 -45 74c0 30 14 54 47 74c-42 30 -62 79 -62 132c0 105 80 173 196 173c54 0 99 -15 132 -41c25 26 55 41 90 41c9 0 17 -1 27 -3v-100c-5 2 -9 3 -17 3c-20 0 -35 -7 -47 -16c6 -17 9 -35 9 -54c0 -101 -78 -170 -196 -170
c-38 0 -54 -16 -54 -35c0 -21 26 -35 70 -35c137 0 230 -61 230 -150c0 -95 -104 -160 -245 -160c-137 0 -225 62 -225 150zM145 -110c0 -32 33 -53 89 -53c61 0 111 25 111 61c0 32 -38 53 -95 53c-62 0 -105 -25 -105 -61zM170 290c0 -41 28 -70 67 -70s67 29 67 70
s-28 70 -67 70s-67 -29 -67 -70z" />
    <glyph glyph-name="gbreve" unicode="&#x11f;" horiz-adv-x="510" 
d="M10 -110c0 55 36 93 90 117c-32 20 -45 45 -45 74c0 30 14 54 47 74c-42 30 -62 79 -62 132c0 105 80 173 196 173c54 0 99 -15 132 -41c25 26 55 41 90 41c9 0 17 -1 27 -3v-100c-5 2 -9 3 -17 3c-20 0 -35 -7 -47 -16c6 -17 9 -35 9 -54c0 -101 -78 -170 -196 -170
c-38 0 -54 -16 -54 -35c0 -21 26 -35 70 -35c137 0 230 -61 230 -150c0 -95 -104 -160 -245 -160c-137 0 -225 62 -225 150zM236 597c40 0 74 13 95 36l63 -63c-39 -42 -93 -66 -158 -66s-119 26 -158 67l63 63c21 -23 55 -37 95 -37zM145 -110c0 -32 33 -53 89 -53
c61 0 111 25 111 61c0 32 -38 53 -95 53c-62 0 -105 -25 -105 -61zM170 290c0 -41 28 -70 67 -70s67 29 67 70s-28 70 -67 70s-67 -29 -67 -70z" />
    <glyph glyph-name="gcircumflex" unicode="&#x11d;" horiz-adv-x="510" 
d="M10 -110c0 55 36 93 90 117c-32 20 -45 45 -45 74c0 30 14 54 47 74c-42 30 -62 79 -62 132c0 105 80 173 196 173c54 0 99 -15 132 -41c25 26 55 41 90 41c9 0 17 -1 27 -3v-100c-5 2 -9 3 -17 3c-20 0 -35 -7 -47 -16c6 -17 9 -35 9 -54c0 -101 -78 -170 -196 -170
c-38 0 -54 -16 -54 -35c0 -21 26 -35 70 -35c137 0 230 -61 230 -150c0 -95 -104 -160 -245 -160c-137 0 -225 62 -225 150zM234 704l146 -146l-64 -64l-82 82l-82 -82l-64 64zM145 -110c0 -32 33 -53 89 -53c61 0 111 25 111 61c0 32 -38 53 -95 53
c-62 0 -105 -25 -105 -61zM170 290c0 -41 28 -70 67 -70s67 29 67 70s-28 70 -67 70s-67 -29 -67 -70z" />
    <glyph glyph-name="gcommaaccent" unicode="&#x123;" horiz-adv-x="510" 
d="M10 -110c0 55 36 93 90 117c-32 20 -45 45 -45 74c0 30 14 54 47 74c-42 30 -62 79 -62 132c0 105 80 173 196 173c54 0 99 -15 132 -41c25 26 55 41 90 41c9 0 17 -1 27 -3v-100c-5 2 -9 3 -17 3c-20 0 -35 -7 -47 -16c6 -17 9 -35 9 -54c0 -101 -78 -170 -196 -170
c-38 0 -54 -16 -54 -35c0 -21 26 -35 70 -35c137 0 230 -61 230 -150c0 -95 -104 -160 -245 -160c-137 0 -225 62 -225 150zM145 -110c0 -32 33 -53 89 -53c61 0 111 25 111 61c0 32 -38 53 -95 53c-62 0 -105 -25 -105 -61zM266 710l32 -32c-22 -23 -38 -45 -46 -70
c27 -6 46 -30 46 -58c0 -34 -26 -60 -60 -60c-25 0 -60 14 -60 66c0 60 47 114 88 154zM170 290c0 -41 28 -70 67 -70s67 29 67 70s-28 70 -67 70s-67 -29 -67 -70z" />
    <glyph glyph-name="gdotaccent" unicode="&#x121;" horiz-adv-x="510" 
d="M10 -110c0 55 36 93 90 117c-32 20 -45 45 -45 74c0 30 14 54 47 74c-42 30 -62 79 -62 132c0 105 80 173 196 173c54 0 99 -15 132 -41c25 26 55 41 90 41c9 0 17 -1 27 -3v-100c-5 2 -9 3 -17 3c-20 0 -35 -7 -47 -16c6 -17 9 -35 9 -54c0 -101 -78 -170 -196 -170
c-38 0 -54 -16 -54 -35c0 -21 26 -35 70 -35c137 0 230 -61 230 -150c0 -95 -104 -160 -245 -160c-137 0 -225 62 -225 150zM145 -110c0 -32 33 -53 89 -53c61 0 111 25 111 61c0 32 -38 53 -95 53c-62 0 -105 -25 -105 -61zM161 585c0 42 33 75 75 75s75 -33 75 -75
s-33 -75 -75 -75s-75 33 -75 75zM170 290c0 -41 28 -70 67 -70s67 29 67 70s-28 70 -67 70s-67 -29 -67 -70z" />
    <glyph glyph-name="h" unicode="h" horiz-adv-x="514" 
d="M50 750h130v-330c32 26 71 40 116 40c104 0 168 -79 168 -195v-265h-130v265c0 47 -29 80 -73 80c-36 0 -63 -12 -81 -32v-313h-130v750z" />
    <glyph glyph-name="hbar" unicode="&#x127;" horiz-adv-x="544" 
d="M30 550v100h50v100h130v-100h145v-100h-145v-130c32 26 71 40 116 40c104 0 168 -79 168 -195v-265h-130v265c0 47 -29 80 -73 80c-36 0 -63 -12 -81 -32v-313h-130v550h-50z" />
    <glyph glyph-name="hcircumflex" unicode="&#x125;" horiz-adv-x="514" 
d="M50 750h130v-330c32 26 71 40 116 40c104 0 168 -79 168 -195v-265h-130v265c0 47 -29 80 -73 80c-36 0 -63 -12 -81 -32v-313h-130v750zM287 954l146 -146l-64 -64l-82 82l-82 -82l-64 64z" />
    <glyph glyph-name="i" unicode="i" 
d="M50 0v450h130v-450h-130zM40 585c0 42 33 75 75 75s75 -33 75 -75s-33 -75 -75 -75s-75 33 -75 75z" />
    <glyph glyph-name="iacute" unicode="&#xed;" 
d="M30 558l146 146l64 -64l-146 -146zM50 0v450h130v-450h-130z" />
    <glyph glyph-name="ibreve" unicode="&#x12d;" 
d="M115 597c40 0 74 13 95 36l63 -63c-39 -42 -93 -66 -158 -66s-119 26 -158 67l63 63c21 -23 55 -37 95 -37zM50 0v450h130v-450h-130z" />
    <glyph glyph-name="icircumflex" unicode="&#xee;" 
d="M50 0v450h130v-450h-130zM115 704l146 -146l-64 -64l-82 82l-82 -82l-64 64z" />
    <glyph glyph-name="idieresis" unicode="&#xef;" 
d="M50 0v450h130v-450h-130zM-43 570c0 39 31 70 70 70s70 -31 70 -70s-31 -70 -70 -70s-70 31 -70 70zM132 570c0 40 31 71 70 71c40 0 71 -31 71 -71c0 -39 -31 -70 -71 -70c-39 0 -70 31 -70 70z" />
    <glyph glyph-name="igrave" unicode="&#xec;" 
d="M54 704l146 -146l-64 -64l-146 146zM50 0v450h130v-450h-130z" />
    <glyph glyph-name="imacron" unicode="&#x12b;" 
d="M-20 525v75h270v-75h-270zM50 0v450h130v-450h-130z" />
    <glyph glyph-name="iogonek" unicode="&#x12f;" 
d="M50 0v450h130v-450h-130zM40 585c0 42 33 75 75 75s75 -33 75 -75s-33 -75 -75 -75s-75 33 -75 75zM101 -33c0 -30 19 -48 46 -48c14 0 26 5 34 13l41 -41c-18 -19 -44 -29 -74 -29c-62 0 -105 42 -105 105c0 13 2 23 7 33h59c-5 -8 -8 -21 -8 -33z" />
    <glyph glyph-name="itilde" unicode="&#x129;" 
d="M26 520h-67c0 63 43 106 101 106c62 0 71 -43 109 -43c20 0 35 16 35 38h67c0 -63 -43 -106 -102 -106c-62 0 -69 43 -108 43c-20 0 -35 -15 -35 -38zM50 0v450h130v-450h-130z" />
    <glyph glyph-name="ij" unicode="&#x133;" horiz-adv-x="460" 
d="M50 0v450h130v-450h-130zM40 585c0 42 33 75 75 75s75 -33 75 -75s-33 -75 -75 -75s-75 33 -75 75zM270 585c0 42 33 75 75 75s75 -33 75 -75s-33 -75 -75 -75s-75 33 -75 75zM228 -250v85c34 0 52 17 52 53v562h130v-566c0 -84 -42 -140 -134 -140c-17 0 -37 2 -48 6z
" />
    <glyph glyph-name="dotlessi" unicode="&#x131;" 
d="M50 0v450h130v-450h-130z" />
    <glyph glyph-name="j" unicode="j" 
d="M40 585c0 42 33 75 75 75s75 -33 75 -75s-33 -75 -75 -75s-75 33 -75 75zM-2 -250v85c34 0 52 17 52 53v562h130v-566c0 -84 -42 -140 -134 -140c-17 0 -37 2 -48 6z" />
    <glyph glyph-name="jcircumflex" unicode="&#x135;" 
d="M-2 -250v85c34 0 52 17 52 53v562h130v-566c0 -84 -42 -140 -134 -140c-17 0 -37 2 -48 6zM115 704l146 -146l-64 -64l-82 82l-82 -82l-64 64z" />
    <glyph glyph-name="dotlessj" unicode="&#x237;" 
d="M-2 -250v85c34 0 52 17 52 53v562h130v-566c0 -84 -42 -140 -134 -140c-17 0 -37 2 -48 6z" />
    <glyph glyph-name="k" unicode="k" horiz-adv-x="485" 
d="M180 0h-130v750h130v-471l129 171h153l-163 -209l181 -241h-152l-148 201v-201z" />
    <glyph glyph-name="kcommaaccent" unicode="&#x137;" horiz-adv-x="485" 
d="M180 0h-130v750h130v-471l129 171h153l-163 -209l181 -241h-152l-148 201v-201zM217 -260l-32 32c22 23 38 45 46 70c-27 6 -46 30 -46 58c0 34 26 60 60 60c25 0 60 -14 60 -66c0 -60 -47 -114 -88 -154z" />
    <glyph glyph-name="l" unicode="l" horiz-adv-x="260" 
d="M237 85v-85c-11 -4 -36 -6 -53 -6c-92 0 -134 56 -134 140v616h130v-612c0 -36 20 -53 57 -53z" />
    <glyph glyph-name="lacute" unicode="&#x13a;" horiz-adv-x="260" 
d="M237 85v-85c-11 -4 -36 -6 -53 -6c-92 0 -134 56 -134 140v616h130v-612c0 -36 20 -53 57 -53zM25 828l146 146l64 -64l-146 -146z" />
    <glyph glyph-name="lcaron" unicode="&#x13e;" horiz-adv-x="420" 
d="M237 85v-85c-11 -4 -36 -6 -53 -6c-92 0 -134 56 -134 140v616h130v-612c0 -36 20 -53 57 -53zM295 485l-40 40c27 28 47 56 58 87c-34 8 -58 37 -58 73c0 42 33 75 75 75c31 0 75 -18 75 -83c0 -75 -59 -142 -110 -192z" />
    <glyph glyph-name="lcommaaccent" unicode="&#x13c;" horiz-adv-x="260" 
d="M237 85v-85c-11 -4 -36 -6 -53 -6c-92 0 -134 56 -134 140v616h130v-612c0 -36 20 -53 57 -53zM112 -260l-32 32c22 23 38 45 46 70c-27 6 -46 30 -46 58c0 34 26 60 60 60c25 0 60 -14 60 -66c0 -60 -47 -114 -88 -154z" />
    <glyph glyph-name="ldot" unicode="&#x140;" horiz-adv-x="411" 
d="M237 85v-85c-11 -4 -36 -6 -53 -6c-92 0 -134 56 -134 140v616h130v-612c0 -36 20 -53 57 -53zM245 325c0 42 33 75 75 75s75 -33 75 -75s-33 -75 -75 -75s-75 33 -75 75z" />
    <glyph glyph-name="lslash" unicode="&#x142;" horiz-adv-x="350" 
d="M292 85v-85c-11 -4 -36 -6 -53 -6c-92 0 -134 56 -134 140v102l-41 -41l-64 64l105 105v386h130v-286l51 51l64 -64l-115 -115v-198c0 -36 20 -53 57 -53z" />
    <glyph glyph-name="m" unicode="m" horiz-adv-x="758" 
d="M578 0v285c0 35 -21 60 -53 60c-35 0 -65 -9 -84 -24c2 -12 3 -24 3 -36v-285h-130v285c0 35 -21 60 -53 60c-36 0 -63 -12 -81 -32v-313h-130v450h130v-30c32 26 71 40 116 40c51 0 91 -22 117 -59c37 38 87 59 147 59c92 0 148 -71 148 -175v-285h-130z" />
    <glyph glyph-name="n" unicode="n" horiz-adv-x="514" 
d="M50 450h130v-30c32 26 71 40 116 40c104 0 168 -79 168 -195v-265h-130v265c0 47 -29 80 -73 80c-36 0 -63 -12 -81 -32v-313h-130v450z" />
    <glyph glyph-name="nacute" unicode="&#x144;" horiz-adv-x="514" 
d="M50 450h130v-30c32 26 71 40 116 40c104 0 168 -79 168 -195v-265h-130v265c0 47 -29 80 -73 80c-36 0 -63 -12 -81 -32v-313h-130v450zM172 558l146 146l64 -64l-146 -146z" />
    <glyph glyph-name="ncaron" unicode="&#x148;" horiz-adv-x="514" 
d="M50 450h130v-30c32 26 71 40 116 40c104 0 168 -79 168 -195v-265h-130v265c0 47 -29 80 -73 80c-36 0 -63 -12 -81 -32v-313h-130v450zM257 494l-146 146l64 64l82 -82l82 82l64 -64z" />
    <glyph glyph-name="ncommaaccent" unicode="&#x146;" horiz-adv-x="514" 
d="M50 450h130v-30c32 26 71 40 116 40c104 0 168 -79 168 -195v-265h-130v265c0 47 -29 80 -73 80c-36 0 -63 -12 -81 -32v-313h-130v450zM229 -260l-32 32c22 23 38 45 46 70c-27 6 -46 30 -46 58c0 34 26 60 60 60c25 0 60 -14 60 -66c0 -60 -47 -114 -88 -154z" />
    <glyph glyph-name="ntilde" unicode="&#xf1;" horiz-adv-x="514" 
d="M50 450h130v-30c32 26 71 40 116 40c104 0 168 -79 168 -195v-265h-130v265c0 47 -29 80 -73 80c-36 0 -63 -12 -81 -32v-313h-130v450zM163 520h-67c0 63 43 106 101 106c62 0 71 -43 109 -43c20 0 35 16 35 38h67c0 -63 -43 -106 -102 -106c-62 0 -69 43 -108 43
c-20 0 -35 -15 -35 -38z" />
    <glyph glyph-name="eng" unicode="&#x14b;" horiz-adv-x="514" 
d="M282 -250v85c34 0 52 17 52 53v377c0 47 -27 80 -77 80c-30 0 -59 -12 -77 -32v-313h-130v450h130v-30c32 26 70 40 115 40c105 0 169 -79 169 -195v-381c0 -84 -42 -140 -134 -140c-17 0 -37 2 -48 6z" />
    <glyph glyph-name="o" unicode="o" horiz-adv-x="544" 
d="M34 225c0 140 96 235 238 235c141 0 238 -95 238 -235s-97 -235 -238 -235c-142 0 -238 95 -238 235zM169 225c0 -71 42 -120 103 -120c60 0 103 49 103 120s-43 120 -103 120c-61 0 -103 -49 -103 -120z" />
    <glyph glyph-name="oacute" unicode="&#xf3;" horiz-adv-x="544" 
d="M34 225c0 140 96 235 238 235c141 0 238 -95 238 -235s-97 -235 -238 -235c-142 0 -238 95 -238 235zM169 225c0 -71 42 -120 103 -120c60 0 103 49 103 120s-43 120 -103 120c-61 0 -103 -49 -103 -120zM187 558l146 146l64 -64l-146 -146z" />
    <glyph glyph-name="obreve" unicode="&#x14f;" horiz-adv-x="544" 
d="M34 225c0 140 96 235 238 235c141 0 238 -95 238 -235s-97 -235 -238 -235c-142 0 -238 95 -238 235zM169 225c0 -71 42 -120 103 -120c60 0 103 49 103 120s-43 120 -103 120c-61 0 -103 -49 -103 -120zM272 597c40 0 74 13 95 36l63 -63c-39 -42 -93 -66 -158 -66
s-119 26 -158 67l63 63c21 -23 55 -37 95 -37z" />
    <glyph glyph-name="ocircumflex" unicode="&#xf4;" horiz-adv-x="544" 
d="M34 225c0 140 96 235 238 235c141 0 238 -95 238 -235s-97 -235 -238 -235c-142 0 -238 95 -238 235zM169 225c0 -71 42 -120 103 -120c60 0 103 49 103 120s-43 120 -103 120c-61 0 -103 -49 -103 -120zM272 704l146 -146l-64 -64l-82 82l-82 -82l-64 64z" />
    <glyph glyph-name="odieresis" unicode="&#xf6;" horiz-adv-x="544" 
d="M34 225c0 140 96 235 238 235c141 0 238 -95 238 -235s-97 -235 -238 -235c-142 0 -238 95 -238 235zM169 225c0 -71 42 -120 103 -120c60 0 103 49 103 120s-43 120 -103 120c-61 0 -103 -49 -103 -120zM104 570c0 39 31 70 70 70s70 -31 70 -70s-31 -70 -70 -70
s-70 31 -70 70zM299 570c0 40 31 71 70 71c40 0 71 -31 71 -71c0 -39 -31 -70 -71 -70c-39 0 -70 31 -70 70z" />
    <glyph glyph-name="ograve" unicode="&#xf2;" horiz-adv-x="544" 
d="M34 225c0 140 96 235 238 235c141 0 238 -95 238 -235s-97 -235 -238 -235c-142 0 -238 95 -238 235zM169 225c0 -71 42 -120 103 -120c60 0 103 49 103 120s-43 120 -103 120c-61 0 -103 -49 -103 -120zM211 704l146 -146l-64 -64l-146 146z" />
    <glyph glyph-name="ohungarumlaut" unicode="&#x151;" horiz-adv-x="544" 
d="M34 225c0 140 96 235 238 235c141 0 238 -95 238 -235s-97 -235 -238 -235c-142 0 -238 95 -238 235zM169 225c0 -71 42 -120 103 -120c60 0 103 49 103 120s-43 120 -103 120c-61 0 -103 -49 -103 -120zM102 558l146 146l64 -64l-146 -146zM272 558l146 146l64 -64
l-146 -146z" />
    <glyph glyph-name="omacron" unicode="&#x14d;" horiz-adv-x="544" 
d="M34 225c0 140 96 235 238 235c141 0 238 -95 238 -235s-97 -235 -238 -235c-142 0 -238 95 -238 235zM169 225c0 -71 42 -120 103 -120c60 0 103 49 103 120s-43 120 -103 120c-61 0 -103 -49 -103 -120zM137 525v75h270v-75h-270z" />
    <glyph glyph-name="oslash" unicode="&#xf8;" horiz-adv-x="544" 
d="M29 -10l58 78c-34 40 -53 94 -53 157c0 140 96 235 238 235c34 0 66 -6 94 -16l19 26h130l-63 -84c37 -41 58 -96 58 -161c0 -140 -96 -235 -238 -235c-37 0 -70 7 -100 18l-13 -18h-130zM385 225c0 21 -3 40 -10 57l-135 -183c10 -3 20 -4 32 -4c67 0 113 53 113 130z
M159 225c0 -19 2 -36 7 -51l131 178c-8 2 -16 3 -25 3c-67 0 -113 -53 -113 -130z" />
    <glyph glyph-name="oslashacute" unicode="&#x1ff;" horiz-adv-x="544" 
d="M29 -10l58 78c-34 40 -53 94 -53 157c0 140 96 235 238 235c34 0 66 -6 94 -16l19 26h130l-63 -84c37 -41 58 -96 58 -161c0 -140 -96 -235 -238 -235c-37 0 -70 7 -100 18l-13 -18h-130zM187 558l146 146l64 -64l-146 -146zM385 225c0 21 -3 40 -10 57l-135 -183
c10 -3 20 -4 32 -4c67 0 113 53 113 130zM159 225c0 -19 2 -36 7 -51l131 178c-8 2 -16 3 -25 3c-67 0 -113 -53 -113 -130z" />
    <glyph glyph-name="otilde" unicode="&#xf5;" horiz-adv-x="544" 
d="M34 225c0 140 96 235 238 235c141 0 238 -95 238 -235s-97 -235 -238 -235c-142 0 -238 95 -238 235zM169 225c0 -71 42 -120 103 -120c60 0 103 49 103 120s-43 120 -103 120c-61 0 -103 -49 -103 -120zM183 520h-67c0 63 43 106 101 106c62 0 71 -43 109 -43
c20 0 35 16 35 38h67c0 -63 -43 -106 -102 -106c-62 0 -69 43 -108 43c-20 0 -35 -15 -35 -38z" />
    <glyph glyph-name="oe" unicode="&#x153;" horiz-adv-x="795" 
d="M766 184h-293c13 -49 48 -79 109 -79c37 0 67 12 85 33l77 -79c-42 -44 -100 -69 -173 -69c-58 0 -109 16 -149 46c-40 -29 -91 -46 -150 -46c-142 0 -238 95 -238 235s96 235 238 235c57 0 106 -16 146 -44c37 28 82 44 140 44c142 0 208 -95 208 -276zM272 105
c31 0 57 13 75 35c-9 26 -13 56 -13 87s4 58 12 84c-18 21 -44 34 -74 34c-61 0 -103 -49 -103 -120s42 -120 103 -120zM559 348c-46 0 -76 -29 -86 -74h163c-9 45 -31 74 -77 74z" />
    <glyph glyph-name="p" unicode="p" horiz-adv-x="540" 
d="M50 450h130v-30c33 26 73 40 118 40c124 0 207 -95 207 -235s-93 -235 -230 -235c-35 0 -67 7 -95 20v-260h-130v700zM370 225c0 71 -45 120 -109 120c-35 0 -63 -12 -81 -32v-180c18 -18 46 -28 81 -28c64 0 109 49 109 120z" />
    <glyph glyph-name="q" unicode="q" horiz-adv-x="540" 
d="M284 460c89 0 167 -32 206 -79v-631h-130v265c-31 -16 -67 -25 -106 -25c-130 0 -219 96 -219 233c0 142 96 237 249 237zM170 225c0 -70 42 -120 106 -120c31 0 64 12 84 41v174c-20 16 -49 25 -78 25c-69 0 -112 -49 -112 -120z" />
    <glyph glyph-name="r" unicode="r" horiz-adv-x="335" 
d="M282 458c10 0 18 -1 28 -3v-112c-12 4 -25 5 -38 5c-40 0 -73 -22 -92 -54v-294h-130v450h130v-40c29 30 64 48 102 48z" />
    <glyph glyph-name="racute" unicode="&#x155;" horiz-adv-x="335" 
d="M282 458c10 0 18 -1 28 -3v-112c-12 4 -25 5 -38 5c-40 0 -73 -22 -92 -54v-294h-130v450h130v-40c29 30 64 48 102 48zM100 558l146 146l64 -64l-146 -146z" />
    <glyph glyph-name="rcaron" unicode="&#x159;" horiz-adv-x="335" 
d="M282 458c10 0 18 -1 28 -3v-112c-12 4 -25 5 -38 5c-40 0 -73 -22 -92 -54v-294h-130v450h130v-40c29 30 64 48 102 48zM185 494l-146 146l64 64l82 -82l82 82l64 -64z" />
    <glyph glyph-name="rcommaaccent" unicode="&#x157;" horiz-adv-x="335" 
d="M282 458c10 0 18 -1 28 -3v-112c-12 4 -25 5 -38 5c-40 0 -73 -22 -92 -54v-294h-130v450h130v-40c29 30 64 48 102 48zM87 -260l-32 32c22 23 38 45 46 70c-27 6 -46 30 -46 58c0 34 26 60 60 60c25 0 60 -14 60 -66c0 -60 -47 -114 -88 -154z" />
    <glyph glyph-name="s" unicode="s" horiz-adv-x="379" 
d="M347 398l-74 -74c-15 16 -47 30 -68 30c-23 0 -36 -17 -36 -33c0 -25 31 -33 69 -49c57 -23 116 -53 116 -134s-61 -148 -165 -148c-65 0 -124 26 -166 70l74 74c19 -22 53 -39 83 -39s45 18 45 37c0 20 -18 28 -68 47s-117 51 -117 138c0 77 54 143 153 143
c59 0 115 -23 154 -62z" />
    <glyph glyph-name="sacute" unicode="&#x15b;" horiz-adv-x="379" 
d="M347 398l-74 -74c-15 16 -47 30 -68 30c-23 0 -36 -17 -36 -33c0 -25 31 -33 69 -49c57 -23 116 -53 116 -134s-61 -148 -165 -148c-65 0 -124 26 -166 70l74 74c19 -22 53 -39 83 -39s45 18 45 37c0 20 -18 28 -68 47s-117 51 -117 138c0 77 54 143 153 143
c59 0 115 -23 154 -62zM104 558l146 146l64 -64l-146 -146z" />
    <glyph glyph-name="scaron" unicode="&#x161;" horiz-adv-x="379" 
d="M347 398l-74 -74c-15 16 -47 30 -68 30c-23 0 -36 -17 -36 -33c0 -25 31 -33 69 -49c57 -23 116 -53 116 -134s-61 -148 -165 -148c-65 0 -124 26 -166 70l74 74c19 -22 53 -39 83 -39s45 18 45 37c0 20 -18 28 -68 47s-117 51 -117 138c0 77 54 143 153 143
c59 0 115 -23 154 -62zM189 494l-146 146l64 64l82 -82l82 82l64 -64z" />
    <glyph glyph-name="scedilla" unicode="&#x15f;" horiz-adv-x="379" 
d="M347 398l-74 -74c-15 16 -47 30 -68 30c-23 0 -36 -17 -36 -33c0 -25 31 -33 69 -49c57 -23 116 -53 116 -134c0 -75 -53 -138 -143 -147v-43c41 -10 68 -38 68 -84c0 -53 -38 -89 -93 -89c-28 0 -51 10 -68 27l37 37c8 -7 18 -12 31 -12c24 0 41 15 41 39
c0 23 -18 42 -66 42v84c-54 6 -102 30 -138 68l74 74c19 -22 53 -39 83 -39s45 18 45 37c0 20 -18 28 -68 47s-117 51 -117 138c0 77 54 143 153 143c59 0 115 -23 154 -62z" />
    <glyph glyph-name="scircumflex" unicode="&#x15d;" horiz-adv-x="379" 
d="M347 398l-74 -74c-15 16 -47 30 -68 30c-23 0 -36 -17 -36 -33c0 -25 31 -33 69 -49c57 -23 116 -53 116 -134s-61 -148 -165 -148c-65 0 -124 26 -166 70l74 74c19 -22 53 -39 83 -39s45 18 45 37c0 20 -18 28 -68 47s-117 51 -117 138c0 77 54 143 153 143
c59 0 115 -23 154 -62zM189 704l146 -146l-64 -64l-82 82l-82 -82l-64 64z" />
    <glyph glyph-name="scommaaccent" unicode="&#x219;" horiz-adv-x="379" 
d="M347 398l-74 -74c-15 16 -47 30 -68 30c-23 0 -36 -17 -36 -33c0 -25 31 -33 69 -49c57 -23 116 -53 116 -134s-61 -148 -165 -148c-65 0 -124 26 -166 70l74 74c19 -22 53 -39 83 -39s45 18 45 37c0 20 -18 28 -68 47s-117 51 -117 138c0 77 54 143 153 143
c59 0 115 -23 154 -62zM161 -260l-32 32c22 23 38 45 46 70c-27 6 -46 30 -46 58c0 34 26 60 60 60c25 0 60 -14 60 -66c0 -60 -47 -114 -88 -154z" />
    <glyph glyph-name="t" unicode="t" horiz-adv-x="335" 
d="M25 350v100h50v100h135v-100h90v-100h-90v-185c0 -39 23 -66 60 -66c10 0 21 2 30 7v-106c-17 -8 -38 -10 -56 -10c-105 0 -169 68 -169 175v185h-50z" />
    <glyph glyph-name="tbar" unicode="&#x167;" horiz-adv-x="335" 
d="M25 205v95h50v50h-50v100h50v100h135v-100h90v-100h-90v-50h90v-95h-90v-40c0 -39 23 -66 60 -66c10 0 21 2 30 7v-106c-17 -8 -38 -10 -56 -10c-105 0 -169 68 -169 175v40h-50z" />
    <glyph glyph-name="tcaron" unicode="&#x165;" horiz-adv-x="415" 
d="M25 350v100h50v100h135v-100h90v-100h-90v-185c0 -39 23 -66 60 -66c10 0 21 2 30 7v-106c-17 -8 -38 -10 -56 -10c-105 0 -169 68 -169 175v185h-50zM300 485l-40 40c27 28 47 56 58 87c-34 8 -58 37 -58 73c0 42 33 75 75 75c31 0 75 -18 75 -83
c0 -75 -59 -142 -110 -192z" />
    <glyph glyph-name="tcommaaccent" unicode="&#x163;" horiz-adv-x="335" 
d="M25 350v100h50v100h135v-100h90v-100h-90v-185c0 -39 23 -66 60 -66c10 0 21 2 30 7v-106c-17 -8 -38 -10 -56 -10c-105 0 -169 68 -169 175v185h-50zM157 -260l-32 32c22 23 38 45 46 70c-27 6 -46 30 -46 58c0 34 26 60 60 60c25 0 60 -14 60 -66
c0 -60 -47 -114 -88 -154z" />
    <glyph glyph-name="uni021B" unicode="&#x21b;" horiz-adv-x="335" 
d="M25 350v100h50v100h135v-100h90v-100h-90v-185c0 -39 23 -66 60 -66c10 0 21 2 30 7v-106c-17 -8 -38 -10 -56 -10c-105 0 -169 68 -169 175v185h-50zM157 -260l-32 32c22 23 38 45 46 70c-27 6 -46 30 -46 58c0 34 26 60 60 60c25 0 60 -14 60 -66
c0 -60 -47 -114 -88 -154z" />
    <glyph glyph-name="u" unicode="u" horiz-adv-x="519" 
d="M469 450v-255c0 -122 -85 -205 -210 -205c-124 0 -209 83 -209 205v255h135v-255c0 -53 32 -90 78 -90s78 37 78 90v255h128z" />
    <glyph glyph-name="uacute" unicode="&#xfa;" horiz-adv-x="519" 
d="M469 450v-255c0 -122 -85 -205 -210 -205c-124 0 -209 83 -209 205v255h135v-255c0 -53 32 -90 78 -90s78 37 78 90v255h128zM174 558l146 146l64 -64l-146 -146z" />
    <glyph glyph-name="ubreve" unicode="&#x16d;" horiz-adv-x="519" 
d="M469 450v-255c0 -122 -85 -205 -210 -205c-124 0 -209 83 -209 205v255h135v-255c0 -53 32 -90 78 -90s78 37 78 90v255h128zM259 597c40 0 74 13 95 36l63 -63c-39 -42 -93 -66 -158 -66s-119 26 -158 67l63 63c21 -23 55 -37 95 -37z" />
    <glyph glyph-name="ucircumflex" unicode="&#xfb;" horiz-adv-x="519" 
d="M469 450v-255c0 -122 -85 -205 -210 -205c-124 0 -209 83 -209 205v255h135v-255c0 -53 32 -90 78 -90s78 37 78 90v255h128zM259 704l146 -146l-64 -64l-82 82l-82 -82l-64 64z" />
    <glyph glyph-name="udieresis" unicode="&#xfc;" horiz-adv-x="519" 
d="M469 450v-255c0 -122 -85 -205 -210 -205c-124 0 -209 83 -209 205v255h135v-255c0 -53 32 -90 78 -90s78 37 78 90v255h128zM91 570c0 39 31 70 70 70s70 -31 70 -70s-31 -70 -70 -70s-70 31 -70 70zM286 570c0 40 31 71 70 71c40 0 71 -31 71 -71
c0 -39 -31 -70 -71 -70c-39 0 -70 31 -70 70z" />
    <glyph glyph-name="uhungarumlaut" unicode="&#x171;" horiz-adv-x="519" 
d="M469 450v-255c0 -122 -85 -205 -210 -205c-124 0 -209 83 -209 205v255h135v-255c0 -53 32 -90 78 -90s78 37 78 90v255h128zM89 558l146 146l64 -64l-146 -146zM259 558l146 146l64 -64l-146 -146z" />
    <glyph glyph-name="ugrave" unicode="&#xf9;" horiz-adv-x="519" 
d="M469 450v-255c0 -122 -85 -205 -210 -205c-124 0 -209 83 -209 205v255h135v-255c0 -53 32 -90 78 -90s78 37 78 90v255h128zM198 704l146 -146l-64 -64l-146 146z" />
    <glyph glyph-name="umacron" unicode="&#x16b;" horiz-adv-x="519" 
d="M469 450v-255c0 -122 -85 -205 -210 -205c-124 0 -209 83 -209 205v255h135v-255c0 -53 32 -90 78 -90s78 37 78 90v255h128zM124 525v75h270v-75h-270z" />
    <glyph glyph-name="uogonek" unicode="&#x173;" horiz-adv-x="519" 
d="M321 -33c0 -30 19 -48 46 -48c14 0 26 5 34 13l41 -41c-18 -19 -44 -29 -74 -29c-62 0 -105 42 -105 105c0 9 1 16 3 23h-7c-124 0 -209 83 -209 205v255h135v-255c0 -53 32 -90 78 -90s78 37 78 90v255h128v-255c0 -98 -55 -171 -141 -195c-5 -8 -7 -21 -7 -33z" />
    <glyph glyph-name="uring" unicode="&#x16f;" horiz-adv-x="519" 
d="M469 450v-255c0 -122 -85 -205 -210 -205c-124 0 -209 83 -209 205v255h135v-255c0 -53 32 -90 78 -90s78 37 78 90v255h128zM166 580c0 57 38 95 93 95c56 0 93 -38 93 -95s-37 -95 -93 -95c-55 0 -93 38 -93 95zM218 579c0 -25 17 -42 41 -42c25 0 42 17 42 42
c0 26 -18 43 -42 43s-41 -17 -41 -43z" />
    <glyph glyph-name="utilde" unicode="&#x169;" horiz-adv-x="519" 
d="M469 450v-255c0 -122 -85 -205 -210 -205c-124 0 -209 83 -209 205v255h135v-255c0 -53 32 -90 78 -90s78 37 78 90v255h128zM170 520h-67c0 63 43 106 101 106c62 0 71 -43 109 -43c20 0 35 16 35 38h67c0 -63 -43 -106 -102 -106c-62 0 -69 43 -108 43
c-20 0 -35 -15 -35 -38z" />
    <glyph glyph-name="v" unicode="v" horiz-adv-x="497" 
d="M499 450l-191 -450h-119l-191 450h145l105 -286l106 286h145z" />
    <glyph glyph-name="w" unicode="w" horiz-adv-x="744" 
d="M746 450l-162 -450h-135l-77 265l-77 -265h-135l-162 450h150l79 -290l80 290h130l80 -290l79 290h150z" />
    <glyph glyph-name="wacute" unicode="&#x1e83;" horiz-adv-x="744" 
d="M746 450l-162 -450h-135l-77 265l-77 -265h-135l-162 450h150l79 -290l80 290h130l80 -290l79 290h150zM287 558l146 146l64 -64l-146 -146z" />
    <glyph glyph-name="wcircumflex" unicode="&#x175;" horiz-adv-x="744" 
d="M746 450l-162 -450h-135l-77 265l-77 -265h-135l-162 450h150l79 -290l80 290h130l80 -290l79 290h150zM372 704l146 -146l-64 -64l-82 82l-82 -82l-64 64z" />
    <glyph glyph-name="wdieresis" unicode="&#x1e85;" horiz-adv-x="744" 
d="M746 450l-162 -450h-135l-77 265l-77 -265h-135l-162 450h150l79 -290l80 290h130l80 -290l79 290h150zM205 570c0 39 31 70 70 70s70 -31 70 -70s-31 -70 -70 -70s-70 31 -70 70zM400 570c0 40 31 71 70 71c40 0 71 -31 71 -71c0 -39 -31 -70 -71 -70
c-39 0 -70 31 -70 70z" />
    <glyph glyph-name="wgrave" unicode="&#x1e81;" horiz-adv-x="744" 
d="M746 450l-162 -450h-135l-77 265l-77 -265h-135l-162 450h150l79 -290l80 290h130l80 -290l79 290h150zM312 704l146 -146l-64 -64l-146 146z" />
    <glyph glyph-name="x" unicode="x" horiz-adv-x="502" 
d="M350 0l-100 150l-98 -150h-149l162 231l-153 219h150l88 -137l89 137h150l-153 -219l163 -231h-149z" />
    <glyph glyph-name="y" unicode="y" horiz-adv-x="497" 
d="M499 450l-302 -700h-145l137 250l-191 450h145l106 -292l105 292h145z" />
    <glyph glyph-name="yacute" unicode="&#xfd;" horiz-adv-x="497" 
d="M499 450l-302 -700h-145l137 250l-191 450h145l106 -292l105 292h145zM163 558l146 146l64 -64l-146 -146z" />
    <glyph glyph-name="ycircumflex" unicode="&#x177;" horiz-adv-x="497" 
d="M499 450l-302 -700h-145l137 250l-191 450h145l106 -292l105 292h145zM249 704l146 -146l-64 -64l-82 82l-82 -82l-64 64z" />
    <glyph glyph-name="ydieresis" unicode="&#xff;" horiz-adv-x="497" 
d="M499 450l-302 -700h-145l137 250l-191 450h145l106 -292l105 292h145zM81 570c0 39 31 70 70 70s70 -31 70 -70s-31 -70 -70 -70s-70 31 -70 70zM276 570c0 40 31 71 70 71c40 0 71 -31 71 -71c0 -39 -31 -70 -71 -70c-39 0 -70 31 -70 70z" />
    <glyph glyph-name="ygrave" unicode="&#x1ef3;" horiz-adv-x="497" 
d="M499 450l-302 -700h-145l137 250l-191 450h145l106 -292l105 292h145zM189 704l146 -146l-64 -64l-146 146z" />
    <glyph glyph-name="z" unicode="z" horiz-adv-x="466" 
d="M40 350v100h391v-35l-201 -315h201v-100h-396v36l201 314h-196z" />
    <glyph glyph-name="zacute" unicode="&#x17a;" horiz-adv-x="466" 
d="M40 350v100h391v-35l-201 -315h201v-100h-396v36l201 314h-196zM148 558l146 146l64 -64l-146 -146z" />
    <glyph glyph-name="zcaron" unicode="&#x17e;" horiz-adv-x="466" 
d="M40 350v100h391v-35l-201 -315h201v-100h-396v36l201 314h-196zM233 494l-146 146l64 64l82 -82l82 82l64 -64z" />
    <glyph glyph-name="zdotaccent" unicode="&#x17c;" horiz-adv-x="466" 
d="M40 350v100h391v-35l-201 -315h201v-100h-396v36l201 314h-196zM158 585c0 42 33 75 75 75s75 -33 75 -75s-33 -75 -75 -75s-75 33 -75 75z" />
    <glyph glyph-name="germandbls" unicode="&#xdf;" horiz-adv-x="616" 
d="M185 548v-548h-135v548c0 126 92 212 227 212c136 0 228 -86 228 -211c0 -82 -37 -148 -98 -183c1 -99 179 -55 179 -220c0 -85 -61 -156 -165 -156c-65 0 -124 26 -166 70l79 79c19 -22 48 -42 77 -42c30 0 45 23 45 42c0 67 -179 44 -179 209v102c55 0 93 40 93 97
c0 58 -38 98 -93 98c-54 0 -92 -40 -92 -97z" />
    <glyph glyph-name="longs" unicode="&#x17f;" horiz-adv-x="310" 
d="M50 0v580c0 110 68 180 179 180c18 0 39 -2 56 -10v-106c-9 5 -20 7 -30 7c-43 0 -70 -29 -70 -71v-580h-135z" />
    <glyph glyph-name="uni01DD" unicode="&#x1dd;" horiz-adv-x="501" 
d="M35 265h297c-13 49 -49 80 -111 80c-38 0 -68 -12 -87 -33l-77 79c43 44 101 69 174 69c143 0 240 -94 240 -238c0 -137 -89 -232 -224 -232c-139 0 -212 102 -212 275zM244 102c47 0 78 30 88 75h-167c9 -45 32 -75 79 -75z" />
    <glyph glyph-name="zero" unicode="0" horiz-adv-x="560" 
d="M40 350c0 214 97 360 240 360s240 -146 240 -360s-97 -360 -240 -360s-240 146 -240 360zM175 350c0 -145 43 -245 105 -245s105 100 105 245s-43 245 -105 245s-105 -100 -105 -245z" />
    <glyph glyph-name="one" unicode="1" horiz-adv-x="350" 
d="M30 570v100l240 35v-705h-130v587z" />
    <glyph glyph-name="two" unicode="2" horiz-adv-x="525" 
d="M33 105l294 294c20 20 28 49 28 81c0 67 -39 114 -95 114s-95 -47 -95 -114h-135c0 137 93 230 230 230s230 -93 230 -230c0 -70 -25 -126 -68 -169l-201 -201h269v-110h-457v105z" />
    <glyph glyph-name="three" unicode="3" horiz-adv-x="540" 
d="M224 321v108h46c47 0 80 36 80 84s-33 82 -80 82s-80 -34 -80 -82h-135c0 116 87 197 215 197s215 -81 215 -197c0 -61 -25 -106 -66 -136c54 -35 86 -89 86 -165c0 -131 -95 -222 -235 -222s-235 91 -235 222h135c0 -63 41 -107 100 -107s100 44 100 107
s-41 109 -100 109h-46z" />
    <glyph glyph-name="four" unicode="4" horiz-adv-x="570" 
d="M340 0v120h-310v55l305 525h130v-470h56v-110h-51v-120h-130zM193 230h152v276z" />
    <glyph glyph-name="five" unicode="5" horiz-adv-x="525" 
d="M490 220c0 -137 -93 -230 -230 -230s-230 91 -230 225h130c0 -64 41 -109 100 -109c56 0 95 47 95 114c0 74 -47 125 -114 125c-36 0 -66 -14 -85 -35l-95 29l38 361h336v-110h-221l-14 -136c14 4 34 6 49 6c144 0 241 -97 241 -240z" />
    <glyph glyph-name="six" unicode="6" horiz-adv-x="530" 
d="M283 710l112 -64c-56 -57 -123 -142 -162 -214c10 2 20 3 34 3c134 0 228 -86 228 -221c0 -133 -92 -224 -231 -224c-136 0 -229 86 -229 236c0 170 119 356 248 484zM170 215c0 -65 39 -110 95 -110s95 45 95 110s-39 110 -95 110s-95 -45 -95 -110z" />
    <glyph glyph-name="seven" unicode="7" horiz-adv-x="541" 
d="M40 590v110h461v-35l-228 -665h-138l196 590h-291z" />
    <glyph glyph-name="eight" unicode="8" horiz-adv-x="540" 
d="M55 513c0 116 87 197 215 197s215 -81 215 -197c0 -61 -25 -106 -66 -136c54 -35 86 -89 86 -165c0 -131 -95 -222 -235 -222s-235 91 -235 222c0 76 31 130 84 165c-40 30 -64 75 -64 136zM170 212c0 -63 41 -107 100 -107s100 44 100 107s-41 107 -100 107
s-100 -44 -100 -107zM190 513c0 -48 33 -82 80 -82s80 34 80 82s-33 82 -80 82s-80 -34 -80 -82z" />
    <glyph glyph-name="nine" unicode="9" horiz-adv-x="530" 
d="M247 -10l-112 64c56 57 123 142 162 214c-10 -2 -20 -3 -34 -3c-134 0 -228 86 -228 221c0 133 92 224 231 224c136 0 229 -86 229 -236c0 -170 -119 -356 -248 -484zM360 485c0 65 -39 110 -95 110s-95 -45 -95 -110s39 -110 95 -110s95 45 95 110z" />
    <glyph glyph-name="comma" unicode="," 
d="M80 -135l-40 40c27 28 47 56 58 87c-34 8 -58 37 -58 73c0 42 33 75 75 75c31 0 75 -18 75 -83c0 -75 -59 -142 -110 -192z" />
    <glyph glyph-name="period" unicode="." 
d="M40 65c0 42 33 75 75 75s75 -33 75 -75s-33 -75 -75 -75s-75 33 -75 75z" />
    <glyph glyph-name="currency" unicode="&#xa4;" horiz-adv-x="561" 
d="M91 300c0 36 8 68 23 95l-84 84l71 71l86 -86c27 13 59 21 94 21s66 -8 93 -21l86 86l71 -71l-84 -84c15 -27 24 -59 24 -95s-9 -69 -24 -96l83 -83l-71 -71l-85 85c-27 -13 -58 -20 -93 -20s-67 7 -94 20l-85 -85l-71 71l83 83c-15 27 -23 60 -23 96zM206 300
c0 -53 31 -90 75 -90s75 37 75 90s-31 90 -75 90s-75 -37 -75 -90z" />
    <glyph glyph-name="cent" unicode="&#xa2;" horiz-adv-x="465" 
d="M230 -100v93c-118 16 -195 106 -195 232s77 215 195 232v93h70v-92c56 -6 104 -31 140 -68l-79 -79c-15 16 -36 28 -61 32v-237c25 4 46 15 61 32l79 -79c-36 -38 -84 -61 -140 -67v-92h-70zM170 225c0 -51 23 -91 60 -109v218c-37 -19 -60 -58 -60 -109z" />
    <glyph glyph-name="dollar" unicode="$" horiz-adv-x="570" 
d="M250 -100v92c-81 8 -152 45 -211 105l83 83c34 -34 80 -62 128 -69v184c-88 32 -190 73 -190 208c0 108 67 196 190 206v91h70v-94c69 -10 132 -43 180 -91l-83 -83c-23 22 -59 45 -97 54v-176c89 -34 195 -74 195 -207c0 -109 -71 -197 -195 -211v-92h-70zM375 200
c0 31 -23 51 -55 67v-147c37 16 55 51 55 80zM200 507c0 -31 20 -51 50 -68v144c-35 -15 -50 -49 -50 -76z" />
    <glyph glyph-name="Euro" unicode="&#x20ac;" horiz-adv-x="745" 
d="M35 380v70h66c39 158 170 260 349 260c107 0 197 -37 260 -100l-85 -85c-40 41 -98 65 -168 65c-100 0 -177 -54 -210 -140h213v-70h-229c-1 -10 -1 -20 -1 -30c0 -11 0 -20 1 -30h229v-70h-213c33 -86 110 -140 210 -140c70 0 127 23 168 64l85 -84
c-63 -63 -153 -100 -260 -100c-179 0 -310 102 -349 260h-66v70h56c-1 10 -1 20 -1 30s0 20 1 30h-56z" />
    <glyph glyph-name="sterling" unicode="&#xa3;" horiz-adv-x="532" 
d="M35 300v100h73v110c0 122 90 200 212 200c65 0 120 -22 157 -58l-86 -86c-15 15 -37 24 -64 24c-49 0 -84 -30 -84 -80v-110h157v-100h-157v-159c39 -17 67 -43 100 -43c28 0 47 20 47 48h102c0 -95 -63 -156 -146 -156c-81 0 -117 59 -167 59c-28 0 -47 -19 -47 -49
h-102c0 66 31 116 78 140v160h-73z" />
    <glyph glyph-name="yen" unicode="&#xa5;" horiz-adv-x="695" 
d="M159 200v70h120v11l-264 419h155l177 -287l177 287h155l-265 -421v-9h120v-70h-120v-55h120v-70h-120v-75h-135v75h-120v70h120v55h-120z" />
    <glyph glyph-name="uni20B4" unicode="&#x20b4;" horiz-adv-x="450" 
d="M35 380v70h207l7 7c19 19 28 36 28 65c0 42 -33 72 -77 72c-34 0 -62 -13 -80 -35l-82 82c40 44 95 69 162 69c125 0 210 -75 210 -184c0 -29 -7 -54 -18 -76h23v-70h-77l-55 -55h132v-70h-202l-12 -12c-19 -19 -28 -36 -28 -65c0 -42 33 -72 77 -72c34 0 62 13 80 35
l82 -82c-40 -44 -95 -69 -162 -69c-125 0 -210 75 -210 184c0 30 8 57 21 81h-26v70h82l55 55h-137z" />
    <glyph glyph-name="florin" unicode="&#x192;" horiz-adv-x="345" 
d="M43 -250v85c25 0 42 16 42 43v472h-55v100h55v130c0 110 68 180 179 180c18 0 39 -2 56 -10v-106c-9 5 -20 7 -30 7c-43 0 -70 -29 -70 -71v-130h100v-100h-100v-476c0 -75 -46 -130 -130 -130c-16 0 -36 2 -47 6z" />
    <glyph glyph-name="numbersign" unicode="#" horiz-adv-x="630" 
d="M330 0l21 150h-130l-21 -150h-130l21 150h-61v100h76l28 200h-76v100h90l22 150h130l-22 -150h130l22 150h130l-22 -150h62v-100h-76l-28 -200h76v-100h-91l-21 -150h-130zM264 450l-28 -200h130l28 200h-130z" />
    <glyph glyph-name="onesuperior" unicode="&#xb9;" horiz-adv-x="198" 
d="M25 631v54l125 18v-353h-70v289z" />
    <glyph glyph-name="twosuperior" unicode="&#xb2;" horiz-adv-x="283" 
d="M25 406l146 146c9 9 13 23 13 37c0 32 -18 54 -43 54c-26 0 -44 -22 -44 -54h-73c0 69 47 116 117 116c69 0 116 -47 116 -116c0 -35 -15 -62 -37 -84l-96 -96h133v-59h-232v56z" />
    <glyph glyph-name="threesuperior" unicode="&#xb3;" horiz-adv-x="291" 
d="M123 508v58h23c22 0 37 17 37 39c0 23 -15 38 -37 38s-37 -15 -37 -38h-73c0 59 45 100 110 100s110 -41 110 -100c0 -30 -12 -52 -32 -67c26 -18 41 -44 41 -81c0 -66 -48 -112 -119 -112s-119 46 -119 112h73c0 -30 19 -50 46 -50s46 20 46 50c0 29 -19 51 -46 51h-23z
" />
    <glyph glyph-name="onehalf" unicode="&#xbd;" horiz-adv-x="697" 
d="M25 631v54l125 18v-353h-70v289zM80 0l380 700h90l-380 -700h-90zM439 56l146 146c9 9 13 23 13 37c0 32 -18 54 -43 54c-26 0 -44 -22 -44 -54h-73c0 69 47 116 117 116c69 0 116 -47 116 -116c0 -35 -15 -62 -37 -84l-96 -96h133v-59h-232v56z" />
    <glyph glyph-name="onequarter" unicode="&#xbc;" horiz-adv-x="642" 
d="M25 631v54l125 18v-353h-70v289zM80 0l380 700h90l-380 -700h-90zM513 0v59h-154v29l152 262h69v-232h28v-59h-25v-59h-70zM447 118h69v128z" />
    <glyph glyph-name="threequarters" unicode="&#xbe;" horiz-adv-x="673" 
d="M123 508v58h23c22 0 37 17 37 39c0 23 -15 38 -37 38s-37 -15 -37 -38h-73c0 59 45 100 110 100s110 -41 110 -100c0 -30 -12 -52 -32 -67c26 -18 41 -44 41 -81c0 -66 -48 -112 -119 -112s-119 46 -119 112h73c0 -30 19 -50 46 -50s46 20 46 50c0 29 -19 51 -46 51h-23z
M130 0l380 700h90l-380 -700h-90zM544 0v59h-154v29l152 262h69v-232h28v-59h-25v-59h-70zM478 118h69v128z" />
    <glyph glyph-name="exclam" unicode="!" 
d="M40 65c0 42 33 75 75 75s75 -33 75 -75s-33 -75 -75 -75s-75 33 -75 75zM50 210v490h130v-490h-130z" />
    <glyph glyph-name="quotedbl" unicode="&#x22;" horiz-adv-x="380" 
d="M50 450v250h110v-250h-110zM220 450v250h110v-250h-110z" />
    <glyph glyph-name="quotesingle" unicode="'" horiz-adv-x="210" 
d="M50 450v250h110v-250h-110z" />
    <glyph glyph-name="quotesinglbase" unicode="&#x201a;" 
d="M80 -135l-40 40c27 28 47 56 58 87c-34 8 -58 37 -58 73c0 42 33 75 75 75c31 0 75 -18 75 -83c0 -75 -59 -142 -110 -192z" />
    <glyph glyph-name="quotedblbase" unicode="&#x201e;" horiz-adv-x="400" 
d="M80 -135l-40 40c27 28 47 56 58 87c-34 8 -58 37 -58 73c0 42 33 75 75 75c31 0 75 -18 75 -83c0 -75 -59 -142 -110 -192zM250 -135l-40 40c27 28 47 56 58 87c-34 8 -58 37 -58 73c0 42 33 75 75 75c31 0 75 -18 75 -83c0 -75 -59 -142 -110 -192z" />
    <glyph glyph-name="quoteleft" unicode="&#x2018;" 
d="M150 710l40 -40c-27 -28 -47 -56 -58 -87c34 -8 58 -37 58 -73c0 -42 -33 -75 -75 -75c-31 0 -75 18 -75 83c0 75 59 142 110 192z" />
    <glyph glyph-name="quoteright" unicode="&#x2019;" 
d="M80 435l-40 40c27 28 47 56 58 87c-34 8 -58 37 -58 73c0 42 33 75 75 75c31 0 75 -18 75 -83c0 -75 -59 -142 -110 -192z" />
    <glyph glyph-name="quotedblleft" unicode="&#x201c;" horiz-adv-x="400" 
d="M320 760l40 -40c-27 -28 -47 -56 -58 -87c34 -8 58 -37 58 -73c0 -42 -33 -75 -75 -75c-31 0 -75 18 -75 83c0 75 59 142 110 192zM150 760l40 -40c-27 -28 -47 -56 -58 -87c34 -8 58 -37 58 -73c0 -42 -33 -75 -75 -75c-31 0 -75 18 -75 83c0 75 59 142 110 192z" />
    <glyph glyph-name="quotedblright" unicode="&#x201d;" horiz-adv-x="400" 
d="M80 485l-40 40c27 28 47 56 58 87c-34 8 -58 37 -58 73c0 42 33 75 75 75c31 0 75 -18 75 -83c0 -75 -59 -142 -110 -192zM250 485l-40 40c27 28 47 56 58 87c-34 8 -58 37 -58 73c0 42 33 75 75 75c31 0 75 -18 75 -83c0 -75 -59 -142 -110 -192z" />
    <glyph glyph-name="ampersand" unicode="&#x26;" horiz-adv-x="595" 
d="M325 321v108h235v-108h-50v-109c0 -131 -95 -222 -235 -222s-235 91 -235 222c0 76 32 130 86 165c-41 30 -66 75 -66 136c0 116 87 197 215 197s215 -81 215 -197h-135c0 48 -33 82 -80 82s-80 -34 -80 -82s33 -84 80 -84h25v-108h-25c-59 0 -100 -46 -100 -109
s41 -107 100 -107s100 44 100 107v109h-50z" />
    <glyph glyph-name="asterisk" unicode="*" horiz-adv-x="454" 
d="M227 429l-75 -104l-75 55l74 104l-121 39l29 89l121 -39v127h93v-127l121 40l30 -89l-122 -41l76 -103l-77 -55z" />
    <glyph glyph-name="plus" unicode="+" horiz-adv-x="420" 
d="M40 230v100h120v120h100v-120h120v-100h-120v-120h-100v120h-120z" />
    <glyph glyph-name="plusminus" unicode="&#xb1;" horiz-adv-x="420" 
d="M40 250v100h120v120h100v-120h120v-100h-120v-120h-100v120h-120zM40 0v100h340v-100h-340z" />
    <glyph glyph-name="slash" unicode="/" horiz-adv-x="570" 
d="M30 -50l380 800h130l-380 -800h-130z" />
    <glyph glyph-name="backslash" unicode="\" horiz-adv-x="570" 
d="M160 750l380 -800h-130l-380 800h130z" />
    <glyph glyph-name="fraction" unicode="&#x2044;" horiz-adv-x="570" 
d="M30 0l380 700h130l-380 -700h-130z" />
    <glyph glyph-name="at" unicode="@" horiz-adv-x="1050" 
d="M797 -47l82 -81c-84 -87 -212 -132 -351 -132c-292 0 -488 197 -488 485s196 485 487 485c290 0 483 -197 483 -447c0 -208 -134 -273 -237 -273c-58 0 -107 20 -132 57c-36 -37 -83 -57 -137 -57c-124 0 -207 95 -207 235s99 235 246 235c93 0 168 -35 209 -94v-201
c0 -42 27 -60 51 -60c37 0 72 40 72 142c0 208 -144 348 -348 348c-211 0 -352 -151 -352 -370s141 -370 356 -370c100 0 203 33 266 98zM432 225c0 -71 45 -120 109 -120c34 0 63 11 81 32v183c-20 16 -49 25 -82 25c-64 0 -108 -49 -108 -120z" />
    <glyph glyph-name="parenleft" unicode="(" horiz-adv-x="290" 
d="M270 760v-95c-44 0 -95 -169 -95 -415s51 -415 95 -415v-95c-125 0 -230 207 -230 510s105 510 230 510z" />
    <glyph glyph-name="parenright" unicode=")" horiz-adv-x="290" 
d="M20 665v95c125 0 230 -207 230 -510s-105 -510 -230 -510v95c44 0 95 169 95 415s-51 415 -95 415z" />
    <glyph glyph-name="bracketleft" unicode="[" horiz-adv-x="300" 
d="M270 750v-100h-90v-800h90v-100h-220v1000h220z" />
    <glyph glyph-name="bracketright" unicode="]" horiz-adv-x="300" 
d="M30 650v100h220v-1000h-220v100h90v800h-90z" />
    <glyph glyph-name="braceleft" unicode="{" horiz-adv-x="305" 
d="M275 -165v-95c-108 0 -190 96 -190 235v85c0 83 -27 140 -55 140v95c28 0 55 57 55 140v90c0 139 82 235 190 235v-95c-28 0 -55 -57 -55 -140v-90c0 -86 -32 -151 -83 -188c51 -36 83 -101 83 -187v-85c0 -83 27 -140 55 -140z" />
    <glyph glyph-name="braceright" unicode="}" horiz-adv-x="305" 
d="M30 -260v95c28 0 55 57 55 140v85c0 86 32 151 83 187c-51 37 -83 102 -83 188v90c0 83 -27 140 -55 140v95c108 0 190 -96 190 -235v-90c0 -83 27 -140 55 -140v-95c-28 0 -55 -57 -55 -140v-85c0 -139 -82 -235 -190 -235z" />
    <glyph glyph-name="exclamdown" unicode="&#xa1;" 
d="M40 385c0 42 33 75 75 75s75 -33 75 -75s-33 -75 -75 -75s-75 33 -75 75zM50 240h130v-490h-130v490z" />
    <glyph glyph-name="questiondown" unicode="&#xbf;" horiz-adv-x="481" 
d="M373 -100l83 -83c-60 -49 -122 -77 -205 -77c-131 0 -216 83 -216 188c0 141 151 134 151 252v60h130v-60c0 -169 -146 -184 -146 -250c0 -33 28 -75 85 -75c44 0 87 20 118 45zM326 385c0 -42 -33 -75 -75 -75s-75 33 -75 75s33 75 75 75s75 -33 75 -75z" />
    <glyph glyph-name="guillemotleft" unicode="&#xab;" horiz-adv-x="470" 
d="M196 74l-176 176l176 176l64 -64l-112 -112l112 -112zM376 74l-176 176l176 176l64 -64l-112 -112l112 -112z" />
    <glyph glyph-name="guillemotright" unicode="&#xbb;" horiz-adv-x="470" 
d="M450 250l-176 -176l-64 64l112 112l-112 112l64 64zM270 250l-176 -176l-64 64l112 112l-112 112l64 64z" />
    <glyph glyph-name="guilsinglleft" unicode="&#x2039;" horiz-adv-x="290" 
d="M196 74l-176 176l176 176l64 -64l-112 -112l112 -112z" />
    <glyph glyph-name="guilsinglright" unicode="&#x203a;" horiz-adv-x="290" 
d="M270 250l-176 -176l-64 64l112 112l-112 112l64 64z" />
    <glyph glyph-name="hyphen" unicode="-" horiz-adv-x="340" 
d="M40 220v100h260v-100h-260z" />
    <glyph glyph-name="endash" unicode="&#x2013;" horiz-adv-x="500" 
d="M40 220v100h420v-100h-420z" />
    <glyph glyph-name="emdash" unicode="&#x2014;" horiz-adv-x="700" 
d="M40 220v100h620v-100h-620z" />
    <glyph glyph-name="periodcentered" unicode="&#xb7;" 
d="M40 250c0 42 33 75 75 75s75 -33 75 -75s-33 -75 -75 -75s-75 33 -75 75z" />
    <glyph glyph-name="colon" unicode=":" 
d="M40 65c0 42 33 75 75 75s75 -33 75 -75s-33 -75 -75 -75s-75 33 -75 75zM40 385c0 42 33 75 75 75s75 -33 75 -75s-33 -75 -75 -75s-75 33 -75 75z" />
    <glyph glyph-name="semicolon" unicode=";" 
d="M40 385c0 42 33 75 75 75s75 -33 75 -75s-33 -75 -75 -75s-75 33 -75 75zM80 -135l-40 40c27 28 47 56 58 87c-34 8 -58 37 -58 73c0 42 33 75 75 75c31 0 75 -18 75 -83c0 -75 -59 -142 -110 -192z" />
    <glyph glyph-name="less" unicode="&#x3c;" horiz-adv-x="410" 
d="M316 104l-296 196l296 196l74 -74l-190 -122l190 -122z" />
    <glyph glyph-name="equal" unicode="=" horiz-adv-x="450" 
d="M40 300v100h370v-100h-370zM40 120v100h370v-100h-370z" />
    <glyph glyph-name="logicalnot" unicode="&#xac;" horiz-adv-x="500" 
d="M40 250v100h420v-210h-100v110h-320z" />
    <glyph glyph-name="greater" unicode="&#x3e;" horiz-adv-x="410" 
d="M390 300l-296 -196l-74 74l190 122l-190 122l74 74z" />
    <glyph glyph-name="question" unicode="?" horiz-adv-x="481" 
d="M108 550l-83 83c60 49 122 77 205 77c131 0 216 -83 216 -188c0 -141 -151 -134 -151 -252v-60h-130v60c0 169 146 184 146 250c0 33 -28 75 -85 75c-44 0 -87 -20 -118 -45zM155 65c0 42 33 75 75 75s75 -33 75 -75s-33 -75 -75 -75s-75 33 -75 75z" />
    <glyph glyph-name="asciicircum" unicode="^" horiz-adv-x="432" 
d="M216 704l196 -196l-64 -64l-132 132l-132 -132l-64 64z" />
    <glyph glyph-name="underscore" unicode="_" horiz-adv-x="450" 
d="M0 -200v100h450v-100h-450z" />
    <glyph glyph-name="bar" unicode="|" 
d="M50 -250v1000h130v-1000h-130z" />
    <glyph glyph-name="brokenbar" unicode="&#xa6;" 
d="M50 -250v450h130v-450h-130zM180 750v-450h-130v450h130z" />
    <glyph glyph-name="percent" unicode="%" horiz-adv-x="918" 
d="M204 0l380 700h130l-380 -700h-130zM30 525c0 110 77 185 190 185s190 -75 190 -185s-77 -185 -190 -185s-190 75 -190 185zM145 525c0 -53 31 -90 75 -90s75 37 75 90s-31 90 -75 90s-75 -37 -75 -90zM508 175c0 110 77 185 190 185s190 -75 190 -185
s-77 -185 -190 -185s-190 75 -190 185zM623 175c0 -53 31 -90 75 -90s75 37 75 90s-31 90 -75 90s-75 -37 -75 -90z" />
    <glyph glyph-name="perthousand" unicode="&#x2030;" horiz-adv-x="1328" 
d="M204 0l380 700h130l-380 -700h-130zM30 525c0 110 77 185 190 185s190 -75 190 -185s-77 -185 -190 -185s-190 75 -190 185zM145 525c0 -53 31 -90 75 -90s75 37 75 90s-31 90 -75 90s-75 -37 -75 -90zM508 175c0 110 77 185 190 185s190 -75 190 -185
s-77 -185 -190 -185s-190 75 -190 185zM623 175c0 -53 31 -90 75 -90s75 37 75 90s-31 90 -75 90s-75 -37 -75 -90zM918 175c0 110 77 185 190 185s190 -75 190 -185s-77 -185 -190 -185s-190 75 -190 185zM1033 175c0 -53 31 -90 75 -90s75 37 75 90s-31 90 -75 90
s-75 -37 -75 -90z" />
    <glyph glyph-name="ellipsis" unicode="&#x2026;" horiz-adv-x="690" 
d="M40 65c0 42 33 75 75 75s75 -33 75 -75s-33 -75 -75 -75s-75 33 -75 75zM270 65c0 42 33 75 75 75s75 -33 75 -75s-33 -75 -75 -75s-75 33 -75 75zM500 65c0 42 33 75 75 75s75 -33 75 -75s-33 -75 -75 -75s-75 33 -75 75z" />
    <glyph glyph-name="asciitilde" unicode="~" horiz-adv-x="432" 
d="M102 240h-82c0 75 57 126 126 126c72 0 96 -53 139 -53c25 0 45 20 45 48h82c0 -75 -56 -126 -127 -126c-72 0 -94 54 -138 54c-25 0 -45 -19 -45 -49z" />
    <glyph glyph-name="dagger" unicode="&#x2020;" horiz-adv-x="500" 
d="M40 350v100h145v300h130v-300h145v-100h-145v-600h-130v600h-145z" />
    <glyph glyph-name="daggerdbl" unicode="&#x2021;" horiz-adv-x="500" 
d="M40 50v100h145v200h-145v100h145v300h130v-300h145v-100h-145v-200h145v-100h-145v-300h-130v300h-145z" />
    <glyph glyph-name="figuredash" unicode="&#x2012;" horiz-adv-x="500" 
d="M40 300v100h420v-100h-420z" />
    <glyph glyph-name="minus" unicode="&#x2212;" horiz-adv-x="420" 
d="M40 250v100h340v-100h-340z" />
    <glyph glyph-name="bullet" unicode="&#x2022;" horiz-adv-x="258" 
d="M35 275c0 53 41 94 94 94s94 -41 94 -94s-41 -94 -94 -94s-94 41 -94 94z" />
    <glyph glyph-name="trademark" unicode="&#x2122;" horiz-adv-x="679" 
d="M180 641v-291h-73v291h-88v59h249v-59h-88zM578 350v203l-89 -135h-24l-89 135v-203h-73v350h54l120 -174l120 174h54v-350h-73z" />
    <glyph glyph-name="section" unicode="&#xa7;" horiz-adv-x="432" 
d="M198 449l197 -198l-86 -86l-201 201c-41 41 -73 88 -73 154c0 113 85 190 210 190c67 0 122 -25 162 -69l-82 -82c-18 22 -46 35 -80 35c-44 0 -75 -31 -75 -74c0 -30 9 -51 28 -71zM234 1l-197 198l86 86l201 -201c41 -41 73 -89 73 -154c0 -113 -85 -190 -210 -190
c-67 0 -122 25 -162 69l82 82c18 -22 46 -35 80 -35c44 0 75 31 75 74c0 30 -9 51 -28 71z" />
    <glyph glyph-name="copyright" unicode="&#xa9;" horiz-adv-x="800" 
d="M40 350c0 214 146 360 360 360c215 0 360 -146 360 -360s-145 -360 -360 -360c-214 0 -360 146 -360 360zM136 350c0 -170 108 -288 264 -288s264 118 264 288s-108 288 -264 288s-264 -118 -264 -288zM304 350c0 -68 45 -116 110 -116c33 0 61 11 80 31l46 -45
c-32 -32 -77 -50 -130 -50c-108 0 -181 73 -181 180s73 180 181 180c53 0 98 -18 130 -50l-46 -45c-19 19 -47 31 -80 31c-65 0 -110 -48 -110 -116z" />
    <glyph glyph-name="ordfeminine" unicode="&#xaa;" horiz-adv-x="266" 
d="M241 501v-49c-6 -2 -16 -3 -25 -3c-27 0 -45 11 -55 28c-18 -20 -42 -31 -67 -31c-45 0 -73 34 -73 73c0 57 56 85 115 85c8 0 13 -1 16 -1v10c0 14 -11 32 -34 32c-16 0 -35 -8 -45 -18l-40 39c24 23 53 39 92 39c62 0 102 -40 102 -92v-95c0 -10 5 -17 14 -17zM120 507
c9 0 24 4 32 15v32c-4 1 -7 2 -12 2c-22 0 -43 -10 -43 -28c0 -10 6 -21 23 -21z" />
    <glyph glyph-name="uni00AD" unicode="&#xad;" horiz-adv-x="340" 
d="M40 220v100h260v-100h-260z" />
    <glyph glyph-name="registered" unicode="&#xae;" horiz-adv-x="800" 
d="M40 350c0 214 146 360 360 360c215 0 360 -146 360 -360s-145 -360 -360 -360c-214 0 -360 146 -360 360zM136 350c0 -170 108 -288 264 -288s264 118 264 288s-108 288 -264 288s-264 -118 -264 -288zM452 174l-67 138h-26v-138h-75v350h115c70 0 117 -41 117 -106
c0 -46 -23 -80 -61 -96l80 -148h-83zM440 418c0 26 -16 44 -41 44h-40v-89h40c25 0 41 18 41 45z" />
    <glyph glyph-name="degree" unicode="&#xb0;" horiz-adv-x="285" 
d="M35 595c0 66 44 110 108 110c65 0 108 -44 108 -110s-43 -110 -108 -110c-64 0 -108 44 -108 110zM97 594c0 -28 19 -47 46 -47c28 0 47 19 47 47c0 29 -20 48 -47 48s-46 -19 -46 -48z" />
    <glyph glyph-name="mu" unicode="&#xb5;" horiz-adv-x="519" 
d="M8 -200v85c25 0 42 16 42 43v522h135v-255c0 -53 32 -90 78 -90s78 37 78 90v255h128v-255c0 -122 -85 -205 -210 -205c-29 0 -55 5 -79 12v-78c0 -75 -41 -130 -125 -130c-16 0 -36 2 -47 6z" />
    <glyph glyph-name="paragraph" unicode="&#xb6;" horiz-adv-x="649" 
d="M399 700v-700h-125v300h-15c-131 0 -219 78 -219 200s88 200 219 200h140zM474 0v700h125v-700h-125z" />
    <glyph glyph-name="ordmasculine" unicode="&#xba;" horiz-adv-x="313" 
d="M24 576c0 77 54 129 132 129c79 0 133 -52 133 -129s-54 -130 -133 -130c-78 0 -132 53 -132 130zM102 576c0 -38 22 -63 54 -63c33 0 55 25 55 63c0 37 -22 63 -55 63c-32 0 -54 -26 -54 -63z" />
    <glyph glyph-name="multiply" unicode="&#xd7;" horiz-adv-x="420" 
d="M111 110l-71 71l99 99l-99 99l71 71l99 -99l99 99l71 -71l-99 -99l99 -99l-71 -71l-99 99z" />
    <glyph glyph-name="divide" unicode="&#xf7;" horiz-adv-x="500" 
d="M40 225v100h420v-100h-420zM182 115c0 38 30 67 68 67s67 -29 67 -67s-29 -68 -67 -68s-68 30 -68 68zM182 435c0 38 30 67 68 67s67 -29 67 -67s-29 -68 -67 -68s-68 30 -68 68z" />
    <glyph glyph-name="afii61352" unicode="&#x2116;" horiz-adv-x="1003" 
d="M50 700h85l385 -440v440h135v-700h-85l-385 440v-440h-135v700zM714 576c0 77 54 129 132 129c79 0 133 -52 133 -129s-54 -130 -133 -130c-78 0 -132 53 -132 130zM792 576c0 -38 22 -63 54 -63c33 0 55 25 55 63c0 37 -22 63 -55 63c-32 0 -54 -26 -54 -63z" />
    <glyph glyph-name="afii10017" unicode="&#x410;" horiz-adv-x="749" 
d="M579 0l-60 150h-290l-59 -150h-157l299 700h125l299 -700h-157zM375 524l-98 -254h194z" />
    <glyph glyph-name="afii10018" unicode="&#x411;" horiz-adv-x="554" 
d="M55 0v700h395v-110h-255v-170h85c137 0 229 -82 229 -210s-92 -210 -229 -210h-225zM369 210c0 57 -36 95 -89 95h-85v-190h85c53 0 89 38 89 95z" />
    <glyph glyph-name="afii10019" unicode="&#x412;" horiz-adv-x="569" 
d="M55 0v700h225c121 0 202 -72 202 -186c0 -60 -23 -109 -63 -141c62 -32 100 -94 100 -173c0 -122 -88 -200 -218 -200h-246zM384 210c0 57 -36 95 -89 95h-100v-190h100c53 0 89 38 89 95zM347 502c0 50 -31 83 -77 83h-75v-165h75c46 0 77 33 77 82z" />
    <glyph glyph-name="afii10020" unicode="&#x413;" horiz-adv-x="470" 
d="M55 0v700h380v-110h-245v-590h-135z" />
    <glyph glyph-name="afii10021" unicode="&#x414;" horiz-adv-x="700" 
d="M555 0h-410v-170h-125v275c67 0 120 83 120 195v400h465v-590h75v-280h-125v170zM280 300c0 -55 -13 -150 -48 -190h233v480h-185v-290z" />
    <glyph glyph-name="afii10022" unicode="&#x415;" horiz-adv-x="485" 
d="M190 590v-185h220v-110h-220v-185h255v-110h-390v700h385v-110h-250z" />
    <glyph glyph-name="afii10023" unicode="&#x401;" horiz-adv-x="485" 
d="M190 590v-185h220v-110h-220v-185h255v-110h-390v700h385v-110h-250zM79 800c0 39 31 70 70 70s70 -31 70 -70s-31 -70 -70 -70s-70 31 -70 70zM274 800c0 40 31 71 70 71c40 0 71 -31 71 -71c0 -39 -31 -70 -71 -70c-39 0 -70 31 -70 70z" />
    <glyph glyph-name="afii10024" unicode="&#x416;" horiz-adv-x="963" 
d="M789 0l-240 342v-342h-135v342l-240 -342h-159l257 361l-237 339h155l224 -321v321h135v-321l224 321h155l-237 -339l257 -361h-159z" />
    <glyph glyph-name="afii10025" unicode="&#x417;" horiz-adv-x="569" 
d="M189 305v115h81c50 0 87 30 87 84c0 57 -41 89 -96 89c-47 0 -97 -23 -135 -61l-80 80c60 60 132 98 226 98c141 0 220 -85 220 -194c0 -67 -30 -113 -73 -143c62 -32 100 -94 100 -174c0 -128 -96 -209 -240 -209c-96 0 -181 36 -244 100l84 84c42 -43 97 -67 150 -67
c72 0 115 43 115 104c0 56 -36 94 -89 94h-106z" />
    <glyph glyph-name="afii10026" unicode="&#x418;" horiz-adv-x="700" 
d="M560 700h85v-700h-135v440l-370 -440h-85v700h135v-440z" />
    <glyph glyph-name="afii10027" unicode="&#x419;" horiz-adv-x="700" 
d="M350 827c40 0 74 13 95 36l63 -63c-39 -42 -93 -66 -158 -66s-119 26 -158 67l63 63c21 -23 55 -37 95 -37zM560 700h85v-700h-135v440l-370 -440h-85v700h135v-440z" />
    <glyph glyph-name="afii10028" unicode="&#x41a;" horiz-adv-x="639" 
d="M450 0l-260 344v-344h-135v700h135v-322l239 322h170l-252 -339l277 -361h-174z" />
    <glyph glyph-name="afii10029" unicode="&#x41b;" horiz-adv-x="665" 
d="M33 0v85c67 0 112 68 112 155v460h465v-700h-140v590h-185v-346c0 -123 -68 -250 -186 -250c-23 0 -50 2 -66 6z" />
    <glyph glyph-name="afii10030" unicode="&#x41c;" horiz-adv-x="800" 
d="M610 0v426l-187 -286h-46l-187 286v-426h-135v700h100l245 -361l245 361h100v-700h-135z" />
    <glyph glyph-name="afii10031" unicode="&#x41d;" horiz-adv-x="690" 
d="M190 700v-295h310v295h135v-700h-135v295h-310v-295h-135v700h135z" />
    <glyph glyph-name="afii10032" unicode="&#x41e;" horiz-adv-x="801" 
d="M44 350c0 214 145 360 357 360c213 0 356 -146 356 -360s-143 -360 -356 -360c-212 0 -357 146 -357 360zM184 350c0 -142 89 -240 217 -240s216 98 216 240s-88 240 -216 240s-217 -98 -217 -240z" />
    <glyph glyph-name="afii10033" unicode="&#x41f;" horiz-adv-x="650" 
d="M55 700h540v-700h-135v590h-270v-590h-135v700z" />
    <glyph glyph-name="afii10034" unicode="&#x420;" horiz-adv-x="544" 
d="M55 0v700h215c137 0 229 -82 229 -210s-92 -210 -229 -210h-75v-280h-140zM359 490c0 57 -36 95 -89 95h-75v-190h75c53 0 89 38 89 95z" />
    <glyph glyph-name="afii10035" unicode="&#x421;" horiz-adv-x="700" 
d="M185 350c0 -142 93 -240 227 -240c70 0 127 23 168 64l85 -84c-63 -63 -153 -100 -260 -100c-214 0 -360 146 -360 360s146 360 360 360c107 0 197 -37 260 -100l-85 -85c-40 41 -98 65 -168 65c-134 0 -227 -98 -227 -240z" />
    <glyph glyph-name="afii10036" unicode="&#x422;" horiz-adv-x="566" 
d="M350 590v-590h-135v590h-180v110h495v-110h-180z" />
    <glyph glyph-name="afii10037" unicode="&#x423;" horiz-adv-x="618" 
d="M608 700l-340 -700h-145l124 220l-237 480h145l155 -322l153 322h145z" />
    <glyph glyph-name="afii10038" unicode="&#x424;" horiz-adv-x="827" 
d="M346 0v65c-179 0 -301 116 -301 285s122 285 301 285v65h135v-65c180 0 301 -116 301 -285s-121 -285 -301 -285v-65h-135zM481 515v-330c96 0 161 67 161 165s-65 165 -161 165zM346 185v330c-95 0 -161 -67 -161 -165s66 -165 161 -165z" />
    <glyph glyph-name="afii10039" unicode="&#x425;" horiz-adv-x="753" 
d="M539 0l-177 265l-175 -265h-174l249 356l-240 344h175l165 -252l166 252h175l-240 -344l250 -356h-174z" />
    <glyph glyph-name="afii10040" unicode="&#x426;" horiz-adv-x="730" 
d="M580 0h-525v700h135v-590h310v590h135v-590h70v-280h-125v170z" />
    <glyph glyph-name="afii10041" unicode="&#x427;" horiz-adv-x="584" 
d="M529 0h-130v291c-45 -12 -98 -16 -136 -16c-137 0 -208 81 -208 223v202h130v-197c0 -88 34 -123 107 -123c35 0 82 5 107 15v305h130v-700z" />
    <glyph glyph-name="afii10042" unicode="&#x428;" horiz-adv-x="965" 
d="M910 0h-855v700h135v-590h225v590h135v-590h225v590h135v-700z" />
    <glyph glyph-name="afii10043" unicode="&#x429;" horiz-adv-x="1005" 
d="M855 0h-800v700h135v-590h225v590h135v-590h225v590h135v-590h70v-280h-125v170z" />
    <glyph glyph-name="afii10044" unicode="&#x42a;" horiz-adv-x="684" 
d="M35 590v110h290v-280h85c137 0 229 -82 229 -210s-92 -210 -229 -210h-225v590h-150zM499 210c0 57 -36 95 -89 95h-85v-190h85c53 0 89 38 89 95z" />
    <glyph glyph-name="afii10045" unicode="&#x42b;" horiz-adv-x="774" 
d="M55 0v700h140v-280h85c137 0 229 -82 229 -210s-92 -210 -229 -210h-225zM369 210c0 57 -36 95 -89 95h-85v-190h85c53 0 89 38 89 95zM584 0v700h135v-700h-135z" />
    <glyph glyph-name="afii10046" unicode="&#x42c;" horiz-adv-x="554" 
d="M55 0v700h140v-280h85c137 0 229 -82 229 -210s-92 -210 -229 -210h-225zM369 210c0 57 -36 95 -89 95h-85v-190h85c53 0 89 38 89 95z" />
    <glyph glyph-name="afii10047" unicode="&#x42d;" horiz-adv-x="692" 
d="M119 525l-85 85c62 63 152 100 257 100c212 0 357 -146 357 -360s-145 -360 -357 -360c-105 0 -195 37 -257 100l85 84c40 -41 97 -64 165 -64c114 0 198 73 219 185h-296v110h296c-21 111 -105 185 -219 185c-68 0 -126 -24 -165 -65z" />
    <glyph glyph-name="afii10048" unicode="&#x42e;" horiz-adv-x="1029" 
d="M189 700v-295h136c22 183 149 305 328 305c199 0 332 -146 332 -360s-133 -360 -332 -360c-179 0 -306 121 -328 305h-136v-295h-135v700h135zM462 350c0 -142 78 -240 191 -240c114 0 192 98 192 240s-78 240 -192 240c-113 0 -191 -98 -191 -240z" />
    <glyph glyph-name="afii10049" unicode="&#x42f;" horiz-adv-x="564" 
d="M509 700v-700h-140v280h-62l-134 -280h-153l158 295c-82 30 -133 99 -133 195c0 128 92 210 229 210h235zM185 490c0 -57 36 -95 89 -95h95v190h-95c-53 0 -89 -38 -89 -95z" />
    <glyph glyph-name="afii10050" unicode="&#x490;" horiz-adv-x="465" 
d="M190 590v-590h-135v700h260v125h100v-235h-225z" />
    <glyph glyph-name="afii10051" unicode="&#x402;" horiz-adv-x="689" 
d="M462 0v85c25 0 42 16 42 43v112c0 47 -29 80 -73 80c-36 0 -63 -12 -81 -32v-288h-135v590h-180v110h495v-110h-180v-195c33 26 72 40 118 40c106 0 171 -79 171 -195v-116c0 -75 -42 -130 -129 -130c-16 0 -37 2 -48 6z" />
    <glyph glyph-name="afii10052" unicode="&#x403;" horiz-adv-x="470" 
d="M160 788l146 146l64 -64l-146 -146zM55 0v700h380v-110h-245v-590h-135z" />
    <glyph glyph-name="afii10053" unicode="&#x404;" horiz-adv-x="692" 
d="M408 590c-114 0 -198 -74 -219 -185h345v-110h-345c21 -112 105 -185 219 -185c69 0 125 23 165 64l85 -84c-62 -63 -151 -100 -257 -100c-212 0 -357 146 -357 360s145 360 357 360c106 0 195 -37 257 -100l-85 -85c-39 41 -96 65 -165 65z" />
    <glyph glyph-name="afii10054" unicode="&#x405;" horiz-adv-x="570" 
d="M500 615l-83 -83c-29 29 -81 58 -129 58c-62 0 -88 -48 -88 -83c0 -122 315 -75 315 -304c0 -119 -84 -213 -231 -213c-95 0 -177 39 -245 107l83 83c39 -39 93 -70 148 -70c70 0 105 50 105 90c0 119 -315 67 -315 303c0 115 75 207 213 207c87 0 168 -36 227 -95z" />
    <glyph glyph-name="afii10055" unicode="&#x406;" horiz-adv-x="245" 
d="M55 0v700h135v-700h-135z" />
    <glyph glyph-name="afii10056" unicode="&#x407;" horiz-adv-x="245" 
d="M55 0v700h135v-700h-135zM-35 800c0 39 31 70 70 70s70 -31 70 -70s-31 -70 -70 -70s-70 31 -70 70zM140 800c0 40 31 71 70 71c40 0 71 -31 71 -71c0 -39 -31 -70 -71 -70c-39 0 -70 31 -70 70z" />
    <glyph glyph-name="afii10057" unicode="&#x408;" horiz-adv-x="459" 
d="M269 200v500h135v-500c0 -125 -89 -210 -214 -210c-62 0 -118 22 -155 58l86 86c15 -15 37 -24 63 -24c50 0 85 37 85 90z" />
    <glyph glyph-name="afii10058" unicode="&#x409;" horiz-adv-x="959" 
d="M460 0v590h-175v-346c0 -123 -68 -250 -186 -250c-23 0 -50 2 -66 6v85c67 0 112 68 112 155v460h455v-280h85c137 0 229 -82 229 -210s-92 -210 -229 -210h-225zM774 210c0 57 -36 95 -89 95h-85v-190h85c53 0 89 38 89 95z" />
    <glyph glyph-name="afii10059" unicode="&#x40a;" horiz-adv-x="959" 
d="M190 700v-280h270v280h140v-280h85c137 0 229 -82 229 -210s-92 -210 -229 -210h-225v305h-270v-305h-135v700h135zM774 210c0 57 -36 95 -89 95h-85v-190h85c53 0 89 38 89 95z" />
    <glyph glyph-name="afii10060" unicode="&#x40b;" horiz-adv-x="689" 
d="M350 590v-195c33 26 72 40 118 40c106 0 171 -79 171 -195v-240h-135v240c0 47 -29 80 -73 80c-36 0 -63 -12 -81 -32v-288h-135v590h-180v110h495v-110h-180z" />
    <glyph glyph-name="afii10061" unicode="&#x40c;" horiz-adv-x="639" 
d="M450 0l-260 344v-344h-135v700h135v-322l239 322h170l-252 -339l277 -361h-174zM234 788l146 146l64 -64l-146 -146z" />
    <glyph glyph-name="afii10062" unicode="&#x40e;" horiz-adv-x="618" 
d="M309 827c40 0 74 13 95 36l63 -63c-39 -42 -93 -66 -158 -66s-119 26 -158 67l63 63c21 -23 55 -37 95 -37zM608 700l-340 -700h-145l124 220l-237 480h145l155 -322l153 322h145z" />
    <glyph glyph-name="afii10145" unicode="&#x40f;" horiz-adv-x="690" 
d="M283 0h-228v700h135v-590h310v590h135v-700h-227v-170h-125v170z" />
    <glyph glyph-name="uni040D" unicode="&#x40d;" horiz-adv-x="700" 
d="M289 934l146 -146l-64 -64l-146 146zM560 700h85v-700h-135v440l-370 -440h-85v700h135v-440z" />
    <glyph glyph-name="uni0400" unicode="&#x400;" horiz-adv-x="485" 
d="M190 590v-185h220v-110h-220v-185h255v-110h-390v700h385v-110h-250zM187 934l146 -146l-64 -64l-146 146z" />
    <glyph glyph-name="uni04D8" unicode="&#x4d8;" horiz-adv-x="732" 
d="M688 350c0 -214 -130 -360 -322 -360c-191 0 -322 146 -322 360v50h500c-20 114 -105 190 -220 190c-69 0 -126 -24 -165 -65l-85 85c62 63 151 100 257 100c212 0 357 -146 357 -360zM366 110c90 0 158 71 176 180h-352c18 -109 85 -180 176 -180z" />
    <glyph glyph-name="afii10065" unicode="&#x430;" horiz-adv-x="465" 
d="M437 83v-85c-11 -4 -30 -6 -46 -6c-52 0 -87 22 -105 55c-31 -35 -74 -57 -124 -57c-82 0 -131 60 -131 135c0 100 85 150 187 150c32 0 52 -5 52 -5v25c0 33 -19 60 -74 60c-30 0 -67 -8 -88 -29l-64 64c46 46 93 70 166 70c122 0 190 -67 190 -165v-179
c0 -18 15 -33 37 -33zM207 95c20 0 46 9 63 29v59s-16 6 -41 6c-42 0 -67 -16 -67 -49c0 -24 14 -45 45 -45z" />
    <glyph glyph-name="afii10066" unicode="&#x431;" horiz-adv-x="555" 
d="M437 755l30 -118l-182 -52c-95 -27 -121 -75 -134 -184h6c38 39 95 59 146 59c109 0 217 -93 217 -242c0 -133 -85 -228 -243 -228c-180 0 -237 124 -237 349c0 226 58 329 222 371zM179 225c0 -71 41 -120 103 -120s103 49 103 120s-41 120 -103 120s-103 -49 -103 -120
z" />
    <glyph glyph-name="afii10067" unicode="&#x432;" horiz-adv-x="454" 
d="M50 0v450h212c90 0 139 -49 139 -117c0 -41 -17 -74 -49 -95c50 -20 76 -61 76 -113c0 -73 -52 -125 -148 -125h-230zM255 190h-75v-95h75c23 0 43 21 43 47c0 27 -20 48 -43 48zM180 275h60c19 0 36 18 36 40s-17 40 -36 40h-60v-80z" />
    <glyph glyph-name="afii10068" unicode="&#x433;" horiz-adv-x="355" 
d="M180 350v-350h-130v450h285v-100h-155z" />
    <glyph glyph-name="afii10069" unicode="&#x434;" horiz-adv-x="560" 
d="M540 100v-240h-120v140h-280v-140h-120v240c46 0 90 36 90 98v252h360v-350h70zM235 350v-139c0 -52 -11 -85 -34 -111h139v250h-105z" />
    <glyph glyph-name="afii10070" unicode="&#x435;" horiz-adv-x="501" 
d="M471 184h-297c13 -49 49 -79 111 -79c38 0 68 12 87 33l77 -79c-43 -44 -101 -69 -174 -69c-143 0 -240 94 -240 238c0 137 87 232 228 232c147 0 208 -103 208 -276zM262 348c-47 0 -78 -29 -88 -74h167c-9 45 -32 74 -79 74z" />
    <glyph glyph-name="afii10071" unicode="&#x451;" horiz-adv-x="501" 
d="M471 184h-297c13 -49 49 -79 111 -79c38 0 68 12 87 33l77 -79c-43 -44 -101 -69 -174 -69c-143 0 -240 94 -240 238c0 137 87 232 228 232c147 0 208 -103 208 -276zM262 348c-47 0 -78 -29 -88 -74h167c-9 45 -32 74 -79 74zM92 565c0 39 31 70 70 70s70 -31 70 -70
s-31 -70 -70 -70s-70 31 -70 70zM287 565c0 40 31 71 70 71c40 0 71 -31 71 -71c0 -39 -31 -70 -71 -70c-39 0 -70 31 -70 70z" />
    <glyph glyph-name="afii10072" unicode="&#x436;" horiz-adv-x="710" 
d="M558 0l-138 212v-212h-130v212l-138 -212h-147l161 241l-143 209h148l119 -180v180h130v-180l119 180h148l-143 -209l161 -241h-147z" />
    <glyph glyph-name="afii10073" unicode="&#x437;" horiz-adv-x="406" 
d="M184 460c107 0 168 -55 168 -125c0 -39 -19 -78 -54 -102c50 -21 74 -63 74 -113c0 -76 -57 -130 -185 -130c-83 0 -124 23 -170 69l71 71c22 -25 55 -35 88 -35c49 0 66 23 66 48c0 26 -18 40 -41 40h-80v89h60c28 0 43 20 43 37c0 14 -9 46 -53 46
c-21 0 -55 -8 -78 -36l-71 71c45 47 93 70 162 70z" />
    <glyph glyph-name="afii10074" unicode="&#x438;" horiz-adv-x="520" 
d="M180 450v-240l190 240h100v-450h-130v240l-190 -240h-100v450h130z" />
    <glyph glyph-name="afii10075" unicode="&#x439;" horiz-adv-x="520" 
d="M260 597c40 0 74 13 95 36l63 -63c-39 -42 -93 -66 -158 -66s-119 26 -158 67l63 63c21 -23 55 -37 95 -37zM180 450v-240l190 240h100v-450h-130v240l-190 -240h-100v450h130z" />
    <glyph glyph-name="afii10076" unicode="&#x43a;" horiz-adv-x="490" 
d="M180 0h-130v450h130v-178l134 178h153l-163 -209l181 -241h-152l-153 208v-208z" />
    <glyph glyph-name="afii10077" unicode="&#x43b;" horiz-adv-x="500" 
d="M23 0v85c43 0 72 27 72 95v270h355v-450h-130v350h-100v-176c0 -120 -43 -180 -142 -180c-19 0 -42 2 -55 6z" />
    <glyph glyph-name="afii10078" unicode="&#x43c;" horiz-adv-x="598" 
d="M50 0v450h123l126 -209l126 209h123v-450h-120v253l-97 -173h-64l-97 173v-253h-120z" />
    <glyph glyph-name="afii10079" unicode="&#x43d;" horiz-adv-x="520" 
d="M180 450v-175h160v175h130v-450h-130v175h-160v-175h-130v450h130z" />
    <glyph glyph-name="afii10080" unicode="&#x43e;" horiz-adv-x="544" 
d="M34 225c0 140 96 235 238 235c141 0 238 -95 238 -235s-97 -235 -238 -235c-142 0 -238 95 -238 235zM169 225c0 -71 42 -120 103 -120c60 0 103 49 103 120s-43 120 -103 120c-61 0 -103 -49 -103 -120z" />
    <glyph glyph-name="afii10081" unicode="&#x43f;" horiz-adv-x="510" 
d="M330 0v350h-150v-350h-130v450h410v-450h-130z" />
    <glyph glyph-name="afii10082" unicode="&#x440;" horiz-adv-x="540" 
d="M50 450h130v-30c33 26 73 40 118 40c124 0 207 -95 207 -235s-93 -235 -230 -235c-35 0 -67 7 -95 20v-260h-130v700zM370 225c0 71 -45 120 -109 120c-35 0 -63 -12 -81 -32v-180c18 -18 46 -28 81 -28c64 0 109 49 109 120z" />
    <glyph glyph-name="afii10083" unicode="&#x441;" horiz-adv-x="465" 
d="M170 225c0 -71 45 -120 109 -120c35 0 64 12 82 33l79 -79c-42 -44 -100 -69 -169 -69c-141 0 -236 95 -236 235s95 235 236 235c69 0 127 -26 169 -70l-79 -79c-18 21 -47 34 -82 34c-64 0 -109 -49 -109 -120z" />
    <glyph glyph-name="afii10084" unicode="&#x442;" horiz-adv-x="421" 
d="M275 350v-350h-130v350h-125v100h380v-100h-125z" />
    <glyph glyph-name="afii10085" unicode="&#x443;" horiz-adv-x="497" 
d="M499 450l-302 -700h-145l137 250l-191 450h145l106 -292l105 292h145z" />
    <glyph glyph-name="afii10086" unicode="&#x444;" horiz-adv-x="720" 
d="M445 -5c-7 0 -14 0 -20 1v-246h-130v246c-7 -1 -13 -1 -20 -1c-143 0 -240 90 -240 230s97 230 240 230c7 0 13 0 20 -1v296h130v-296c6 1 13 1 20 1c143 0 240 -90 240 -230s-97 -230 -240 -230zM445 345c-7 0 -14 -1 -20 -2v-237c6 -1 13 -1 20 -1c62 0 105 49 105 120
s-43 120 -105 120zM170 225c0 -71 43 -120 105 -120c7 0 13 0 20 1v237c-7 1 -13 2 -20 2c-62 0 -105 -49 -105 -120z" />
    <glyph glyph-name="afii10087" unicode="&#x445;" horiz-adv-x="521" 
d="M350 0l-100 150l-98 -150h-149l162 231l-153 219h150l88 -137l89 137h150l-153 -219l163 -231h-149z" />
    <glyph glyph-name="afii10088" unicode="&#x446;" horiz-adv-x="540" 
d="M50 0v450h130v-350h150v350h130v-350h65v-240h-120v140h-355z" />
    <glyph glyph-name="afii10089" unicode="&#x447;" horiz-adv-x="469" 
d="M419 0h-130v169c-32 -10 -67 -14 -93 -14c-103 0 -156 61 -156 158v137h130v-132c0 -37 19 -58 59 -58c21 0 46 5 60 15v175h130v-450z" />
    <glyph glyph-name="afii10090" unicode="&#x448;" horiz-adv-x="710" 
d="M530 100v350h130v-450h-610v450h130v-350h110v350h130v-350h110z" />
    <glyph glyph-name="afii10091" unicode="&#x449;" horiz-adv-x="740" 
d="M50 0v450h130v-350h110v350h130v-350h110v350h130v-350h65v-240h-120v140h-555z" />
    <glyph glyph-name="afii10092" unicode="&#x44a;" horiz-adv-x="528" 
d="M337 0h-192v350h-115v100h245v-165h62c108 0 166 -61 166 -143c0 -81 -58 -142 -166 -142zM332 190h-57v-95h57c22 0 41 22 41 47c0 26 -19 48 -41 48z" />
    <glyph glyph-name="afii10093" unicode="&#x44b;" horiz-adv-x="633" 
d="M50 0v450h130v-165h62c108 0 166 -61 166 -143c0 -81 -58 -142 -166 -142h-192zM237 190h-57v-95h57c22 0 41 22 41 47c0 26 -19 48 -41 48zM453 0v450h130v-450h-130z" />
    <glyph glyph-name="afii10094" unicode="&#x44c;" horiz-adv-x="433" 
d="M50 0v450h130v-165h62c108 0 166 -61 166 -143c0 -81 -58 -142 -166 -142h-192zM237 190h-57v-95h57c22 0 41 22 41 47c0 26 -19 48 -41 48z" />
    <glyph glyph-name="afii10095" unicode="&#x44d;" horiz-adv-x="460" 
d="M135 178v94h152c-17 45 -58 73 -106 73c-35 0 -64 -12 -82 -33l-79 79c42 44 100 69 169 69c141 0 236 -95 236 -235s-95 -235 -236 -235c-69 0 -127 26 -169 70l79 79c18 -21 47 -34 82 -34c48 0 89 28 106 73h-152z" />
    <glyph glyph-name="afii10096" unicode="&#x44e;" horiz-adv-x="746" 
d="M179 450v-175h72c20 112 108 185 229 185c139 0 233 -95 233 -235s-94 -235 -233 -235c-121 0 -209 73 -229 185h-72v-175h-130v450h130zM382 225c0 -71 41 -120 98 -120c58 0 98 49 98 120s-40 120 -98 120c-57 0 -98 -49 -98 -120z" />
    <glyph glyph-name="afii10097" unicode="&#x44f;" horiz-adv-x="473" 
d="M423 450v-450h-130v165h-43l-86 -165h-134l103 177c-60 21 -91 69 -91 130c0 83 59 143 169 143h212zM216 260h77v95h-77c-23 0 -43 -21 -43 -47c0 -27 20 -48 43 -48z" />
    <glyph glyph-name="afii10098" unicode="&#x491;" horiz-adv-x="365" 
d="M180 350v-350h-130v450h175v100h100v-200h-145z" />
    <glyph glyph-name="afii10099" unicode="&#x452;" horiz-adv-x="544" 
d="M322 -250v85c25 0 42 16 42 43v387c0 47 -29 80 -73 80c-36 0 -63 -12 -81 -32v-313h-130v550h-50v100h50v100h130v-100h145v-100h-145v-130c32 26 71 40 116 40c104 0 168 -79 168 -195v-391c0 -75 -41 -130 -125 -130c-16 0 -36 2 -47 6z" />
    <glyph glyph-name="afii10100" unicode="&#x453;" horiz-adv-x="355" 
d="M107 558l146 146l64 -64l-146 -146zM180 350v-350h-130v450h285v-100h-155z" />
    <glyph glyph-name="afii10101" unicode="&#x454;" horiz-adv-x="460" 
d="M276 345c-48 0 -88 -29 -104 -73h164v-94h-164c16 -45 56 -73 104 -73c34 0 63 12 80 33l79 -79c-41 -44 -99 -69 -167 -69c-140 0 -234 95 -234 235s94 235 234 235c68 0 126 -26 167 -70l-79 -79c-17 21 -46 34 -80 34z" />
    <glyph glyph-name="afii10102" unicode="&#x455;" horiz-adv-x="379" 
d="M347 398l-74 -74c-15 16 -47 30 -68 30c-23 0 -36 -17 -36 -33c0 -25 31 -33 69 -49c57 -23 116 -53 116 -134s-61 -148 -165 -148c-65 0 -124 26 -166 70l74 74c19 -22 53 -39 83 -39s45 18 45 37c0 20 -18 28 -68 47s-117 51 -117 138c0 77 54 143 153 143
c59 0 115 -23 154 -62z" />
    <glyph glyph-name="afii10103" unicode="&#x456;" 
d="M50 0v450h130v-450h-130zM40 585c0 42 33 75 75 75s75 -33 75 -75s-33 -75 -75 -75s-75 33 -75 75z" />
    <glyph glyph-name="afii10104" unicode="&#x457;" 
d="M50 0v450h130v-450h-130zM-43 565c0 39 31 70 70 70s70 -31 70 -70s-31 -70 -70 -70s-70 31 -70 70zM132 565c0 40 31 71 70 71c40 0 71 -31 71 -71c0 -39 -31 -70 -71 -70c-39 0 -70 31 -70 70z" />
    <glyph glyph-name="afii10105" unicode="&#x458;" 
d="M40 585c0 42 33 75 75 75s75 -33 75 -75s-33 -75 -75 -75s-75 33 -75 75zM-2 -250v85c34 0 52 17 52 53v562h130v-566c0 -84 -42 -140 -134 -140c-17 0 -37 2 -48 6z" />
    <glyph glyph-name="afii10106" unicode="&#x459;" horiz-adv-x="703" 
d="M320 0v350h-95v-176c0 -120 -48 -180 -147 -180c-19 0 -42 2 -55 6v85c43 0 72 21 72 95v270h355v-165h62c108 0 166 -61 166 -143c0 -81 -58 -142 -166 -142h-192zM507 190h-57v-95h57c22 0 41 22 41 47c0 26 -19 48 -41 48z" />
    <glyph glyph-name="afii10107" unicode="&#x45a;" horiz-adv-x="733" 
d="M180 450v-171h160v171h130v-171h70c108 0 163 -58 163 -140c0 -81 -55 -139 -163 -139h-200v179h-160v-179h-130v450h130zM535 179h-65v-84h65c22 0 38 17 38 42c0 26 -16 42 -38 42z" />
    <glyph glyph-name="afii10108" unicode="&#x45b;" horiz-adv-x="544" 
d="M30 550v100h50v100h130v-100h145v-100h-145v-130c32 26 71 40 116 40c104 0 168 -79 168 -195v-265h-130v265c0 47 -29 80 -73 80c-36 0 -63 -12 -81 -32v-313h-130v550h-50z" />
    <glyph glyph-name="afii10109" unicode="&#x45c;" horiz-adv-x="490" 
d="M180 0h-130v450h130v-178l134 178h153l-163 -209l181 -241h-152l-153 208v-208zM162 558l146 146l64 -64l-146 -146z" />
    <glyph glyph-name="afii10110" unicode="&#x45e;" horiz-adv-x="497" 
d="M499 450l-302 -700h-145l137 250l-191 450h145l106 -292l105 292h145zM249 597c40 0 74 13 95 36l63 -63c-39 -42 -93 -66 -158 -66s-119 26 -158 67l63 63c21 -23 55 -37 95 -37z" />
    <glyph glyph-name="afii10193" unicode="&#x45f;" horiz-adv-x="510" 
d="M195 -140v140h-145v450h130v-350h150v350h130v-450h-145v-140h-120z" />
    <glyph glyph-name="uni0450" unicode="&#x450;" horiz-adv-x="501" 
d="M471 184h-297c13 -49 49 -79 111 -79c38 0 68 12 87 33l77 -79c-43 -44 -101 -69 -174 -69c-143 0 -240 94 -240 238c0 137 87 232 228 232c147 0 208 -103 208 -276zM262 348c-47 0 -78 -29 -88 -74h167c-9 45 -32 74 -79 74zM199 704l146 -146l-64 -64l-146 146z" />
    <glyph glyph-name="uni045D" unicode="&#x45d;" horiz-adv-x="520" 
d="M199 704l146 -146l-64 -64l-146 146zM180 450v-240l190 240h100v-450h-130v240l-190 -240h-100v450h130z" />
    <glyph glyph-name="afii10846" unicode="&#x4d9;" horiz-adv-x="496" 
d="M32 265h297c-13 49 -49 80 -111 80c-38 0 -68 -12 -87 -33l-77 79c43 44 101 69 174 69c143 0 240 -94 240 -238c0 -137 -89 -232 -224 -232c-139 0 -212 102 -212 275zM241 102c47 0 78 30 88 75h-167c9 -45 32 -75 79 -75z" />
    <glyph glyph-name="Aringacute" unicode="&#x1fa;" horiz-adv-x="749" 
d="M282 760c0 57 38 95 93 95h1l137 137l64 -64l-120 -120c7 -13 11 -30 11 -48c0 -29 -10 -54 -27 -70l295 -690h-157l-60 150h-290l-59 -150h-157l295 691c-17 16 -26 40 -26 69zM375 524l-98 -254h194zM334 759c0 -25 17 -42 41 -42c25 0 42 17 42 42c0 26 -18 43 -42 43
s-41 -17 -41 -43z" />
    <glyph glyph-name="aringacute" unicode="&#x1fb;" horiz-adv-x="465" 
d="M437 83v-85c-11 -4 -30 -6 -46 -6c-52 0 -87 22 -105 55c-31 -35 -74 -57 -124 -57c-82 0 -131 60 -131 135c0 100 85 150 187 150c32 0 52 -5 52 -5v25c0 33 -19 60 -74 60c-30 0 -67 -8 -88 -29l-64 64c46 46 93 70 166 70c122 0 190 -67 190 -165v-179
c0 -18 15 -33 37 -33zM124 570c0 57 38 95 93 95c3 0 7 0 10 -1l130 130l64 -64l-119 -119c5 -12 8 -26 8 -41c0 -57 -37 -95 -93 -95c-55 0 -93 38 -93 95zM207 95c20 0 46 9 63 29v59s-16 6 -41 6c-42 0 -67 -16 -67 -49c0 -24 14 -45 45 -45zM176 569
c0 -25 17 -42 41 -42c25 0 42 17 42 42c0 26 -18 43 -42 43s-41 -17 -41 -43z" />
    <glyph glyph-name="uni20BD" unicode="&#x20bd;" horiz-adv-x="574" 
d="M25 295v100h60v305h215c137 0 229 -82 229 -210s-92 -210 -229 -210h-75v-55h175v-100h-175v-125h-140v125h-60v100h60v70h-60zM389 490c0 57 -36 95 -89 95h-75v-190h75c53 0 89 38 89 95z" />
    <glyph glyph-name="arrowleft" unicode="&#x2190;" horiz-adv-x="930" 
d="M386 -3l-354 354l354 353l84 -84l-209 -209h617v-120h-617l210 -210z" />
    <glyph glyph-name="arrowright" unicode="&#x2192;" horiz-adv-x="930" 
d="M52 291v120h617l-209 209l84 84l354 -353l-354 -354l-85 84l210 210h-617z" />
    <glyph glyph-name="arrowup" unicode="&#x2191;" horiz-adv-x="771" 
d="M326 -140v617l-210 -210l-84 85l354 354l353 -354l-84 -84l-209 209v-617h-120z" />
    <glyph glyph-name="arrowdown" unicode="&#x2193;" horiz-adv-x="771" 
d="M386 -146l-354 354l84 85l210 -210v617h120v-617l209 209l84 -84z" />
    <glyph glyph-name="uni2196" unicode="&#x2196;" horiz-adv-x="725" 
d="M52 135v500h500v-120h-296l437 -436l-85 -85l-436 437v-296h-120z" />
    <glyph glyph-name="uni2197" unicode="&#x2197;" horiz-adv-x="725" 
d="M173 515v120h500v-500h-120v296l-436 -437l-85 85l437 436h-296z" />
    <glyph glyph-name="uni2198" unicode="&#x2198;" horiz-adv-x="725" 
d="M173 0v120h296l-437 436l85 85l436 -437v296h120v-500h-500z" />
    <glyph glyph-name="uni2199" unicode="&#x2199;" horiz-adv-x="725" 
d="M52 0v500h120v-296l436 437l85 -85l-437 -436h296v-120h-500z" />
    <glyph glyph-name="acute" unicode="&#xb4;" horiz-adv-x="270" 
d="M30 558l146 146l64 -64l-146 -146z" />
    <glyph glyph-name="breve" unicode="&#x2d8;" horiz-adv-x="360" 
d="M180 597c40 0 74 13 95 36l63 -63c-39 -42 -93 -66 -158 -66s-119 26 -158 67l63 63c21 -23 55 -37 95 -37z" />
    </font>
</defs>
</svg>
