<svg id="Слой_1" xmlns="http://www.w3.org/2000/svg" viewBox="0 0 545 242"><style>.st0{fill:#c356c1}</style><path class="st0" d="M133.3 128.2h-16.1v30.5h16.1c8.5 0 14.3-6.1 14.3-15.3 0-9.1-5.8-15.2-14.3-15.2z"/><path class="st0" d="M0 0v242h545V0H0zm159.7 168.5c-6.4 5.8-14.9 8.7-25.4 8.7H94.8V64.8h36.1c19.4 0 32.4 11.7 32.4 29.9 0 9.8-3.4 17.3-10.1 22.6 10.1 5.1 16.1 15.1 16.1 27.8 0 9.8-3.2 17.5-9.6 23.4zm87.5 8.7h-62.6V64.8h61.8v17.7h-40.2v29.7h35.3v17.7h-35.3v29.7h41v17.6zm61 0h-21.7V82.4h-28.9V64.8h79.5v17.7h-28.9v94.7zm116.8 0l-10.4-24.1h-49l-10.3 24.1h-25.2l50-112.4h20.2l50 112.4H425z"/><path class="st0" d="M373.3 133.9h33.6l-16.7-40.8zM141.7 96.6c0-7.9-4.8-13.3-12.4-13.3h-12v26.5h12c7.6 0 12.4-5.3 12.4-13.2z"/></svg>