<svg xmlns="http://www.w3.org/2000/svg" viewBox="0 0 284.4 284.7"><path d="M261.1 63.5C237.3 27.7 198.7 4.8 155.7.7c-44.1-4.2-85.6 11-115.3 42.1-18.1 19-30 40.1-36.9 66-3.1 11.4-3.5 15.7-3.5 34s.5 22.7 3.6 34.5c13.7 51.6 53.9 91.2 105.8 104.1 4.5 1.1 10 2.3 12.2 2.6 9.9 1.4 33.8.8 44.4-1.1 43.8-7.6 82.8-35.9 102.8-74.6 23.4-45.2 20.3-102.6-7.7-144.8zm-5.8 109.2c-11.5 42.5-46.3 74.9-90.3 83.9-68.6 14.2-135.5-37.7-139.7-108.4-2.8-45.7 24.9-91.5 67.4-111.6 16.1-7.6 29-10.4 48.6-10.5 18.8-.1 29.3 1.9 45.7 8.5 33 13.2 58.9 43.1 68.4 79.1 4 15 3.9 44-.1 59z"/><path d="M86.3 183.9c-13-4.6-22.9-18.1-24.7-33.5-2.6-22.8 6-40.5 23.5-48.5 9.5-4.3 26.7-4.2 36.9.2 6.2 2.7 17.9 13.2 17.9 16.2 0 .5-4 2.9-9 5.3l-9 4.4-4.8-4.8c-2.7-2.7-6.7-5.2-9.2-5.6-6.2-1.2-13.5 1.6-16.9 6.3-5.5 7.7-5.9 28-.7 36 2.7 4.1 7.3 7 11.5 7.4 9 .7 11.3-.1 16.6-5.7l5.4-5.7 6.9 3.8c3.8 2.1 7.5 4.3 8.2 4.9 2.3 2.1-8.4 13.1-17 17.4-7.3 3.7-9.6 4.2-19.3 4.1-5.8-.2-13.3-1.1-16.3-2.2zM168.8 183.9c-12.8-4.5-22.6-17.6-24.7-33-3-22.3 5.9-41 23.5-49 10.2-4.6 27.5-4.3 37.8.8 6.4 3.1 17.1 12.9 17.1 15.7 0 .5-4.2 2.9-9.3 5.3l-9.3 4.5-4.8-5.3c-4.3-4.7-5.5-5.3-11.4-5.3-8.2 0-13.4 3.2-16.2 9.9-2.5 6-2.9 20.7-.6 27.5 4.6 13.6 21.4 16.9 30.9 6l4.3-4.9 8.2 4.2c4.5 2.3 8.2 4.5 8.2 5 0 3.1-10.7 13-17.8 16.6-7.3 3.7-9.6 4.2-19.3 4.1-6.1-.1-13.5-1-16.6-2.1z"/></svg>