<svg xmlns="http://www.w3.org/2000/svg" viewBox="0 0 23.7 12"><path d="M23.5 5.4C20.8 2.1 16.8.2 12.6 0h-1.2l-2 .2c-.6.1-1.3.3-1.9.5-.6.2-1.3.5-1.9.7-.6.3-1.2.6-1.8 1-.4.3-1.3 1-1.7 1.3C1.5 4.2 1 4.8.5 5.3L0 6c.3.6.7 1.1 1.2 1.6.4-.6.9-1.1 1.4-1.6l.1-.1 1 3.5c.8.5 1.6 1 2.4 1.3L4.4 4.5c.6-.4 1.2-.8 1.8-1.1l2.2 8.2c.7.2 1.4.3 2.2.4L8 2.6c.6-.2 1.3-.3 1.9-.5l2.6 9.8 2-.2c3.5-.6 6.6-2.4 8.9-5.1.4-.3.4-.9.1-1.2zM16 6c0 1.4-.8 2.7-2 3.4l-.4-1.5c.6-.5.9-1.2.9-1.9 0-1.2-.9-2.3-2.1-2.5L12 2c2.2 0 4 1.8 4 4zm1.3 2.9c1-1.8 1-4 0-5.7 1.5.7 2.9 1.7 4.1 2.9-1.2 1.1-2.6 2.1-4.1 2.8z" fill="#fff" opacity=".5"/></svg>